<?xml-stylesheet type='text/css' href='/styles.css'?>
<svg version="1.2" xmlns="http://www.w3.org/2000/svg" width="727px" height="292px" viewBox="0 0 7270 2920" preserveAspectRatio="xMidYMid meet">
<g id="terry-riley-signature" fill="currentColor" stroke="none">
 <path d="M3350 2439 c-19 -8 -21 -12 -11 -19 8 -4 19 -6 25 -4 38 14 325 -59 414 -105 20 -11 64 -33 97 -49 33 -16 73 -44 88 -62 46 -54 97 -165 97 -209 0 -60 -48 -202 -76 -227 -13 -12 -24 -28 -24 -37 0 -9 -4 -18 -9 -22 -6 -3 -31 -37 -57 -76 -86 -130 -148 -131 -194 -2 -14 40 -37 86 -53 102 -24 27 -34 31 -80 31 -74 0 -94 -8 -108 -42 -15 -37 -15 -144 1 -163 9 -11 17 -12 32 -4 16 9 19 17 13 42 -13 58 -8 110 11 124 42 31 99 2 126 -64 51 -123 52 -126 85 -140 53 -22 111 -7 155 38 20 21 43 49 50 62 7 14 24 44 37 68 13 24 36 59 52 76 15 18 33 52 40 75 6 24 17 55 25 70 24 44 17 121 -17 201 -34 82 -80 137 -130 157 -19 7 -43 21 -54 31 -24 21 -165 93 -228 115 -46 17 -204 44 -252 43 -16 0 -41 -5 -55 -10z"/>
 <path d="M1817 2164 c-9 -16 -10 -168 -3 -584 5 -296 3 -428 -5 -492 -12 -86 -13 -87 -38 -82 -40 8 -101 36 -101 46 0 4 -6 8 -12 8 -13 0 -62 36 -135 97 -78 67 -130 100 -165 107 -25 4 -63 30 -120 78 -45 40 -85 74 -88 77 -16 18 -102 81 -141 103 -45 27 -162 143 -196 195 -10 16 -28 36 -40 46 -13 10 -23 27 -23 37 0 28 -11 50 -25 50 -27 0 -35 -77 -10 -87 9 -3 26 -21 39 -39 43 -63 149 -176 190 -201 23 -14 59 -42 82 -62 22 -20 61 -53 85 -73 24 -21 60 -51 79 -68 19 -18 62 -44 95 -60 33 -15 116 -73 183 -127 92 -74 140 -105 186 -122 34 -12 75 -33 91 -46 17 -13 35 -24 42 -25 6 0 25 -11 41 -25 17 -14 70 -46 119 -71 48 -25 93 -49 98 -53 6 -4 48 -16 95 -26 47 -10 92 -24 100 -30 22 -18 166 -75 187 -75 11 0 23 -4 29 -9 18 -18 118 -41 176 -41 l59 0 19 43 c27 58 27 107 0 107 -15 0 -20 -7 -20 -28 0 -45 -32 -72 -77 -65 -55 7 -179 41 -248 67 -33 12 -91 30 -129 39 -71 18 -276 113 -311 144 -11 10 -33 24 -48 30 -32 15 -44 38 -28 57 11 13 15 427 6 646 -2 58 -7 192 -10 299 -5 177 -13 239 -28 215z"/>
 <path d="M2055 1928 c3 -40 8 -95 10 -121 7 -58 1 -71 -26 -56 -31 16 -53 4 -39 -22 21 -39 156 -164 202 -186 57 -29 128 -39 157 -23 22 11 22 13 6 31 -12 12 -23 16 -33 10 -29 -17 -109 19 -173 76 -35 32 -39 39 -33 69 4 21 2 40 -6 49 -21 25 4 19 101 -25 49 -22 93 -40 97 -40 5 0 28 -9 51 -21 36 -17 45 -18 52 -7 14 21 10 38 -8 44 -10 3 -40 14 -68 24 -27 10 -68 23 -90 29 -51 13 -141 78 -154 111 -5 14 -13 49 -16 78 -5 34 -12 52 -21 52 -11 0 -12 -15 -9 -72z"/>
 <path d="M2182 1933 c3 -25 8 -29 53 -34 28 -4 72 -17 98 -29 26 -12 51 -19 55 -16 11 12 -62 73 -96 81 -17 3 -34 11 -37 16 -4 5 -22 9 -41 9 -33 0 -35 -2 -32 -27z"/>
 <path d="M2875 1854 c-57 -46 -96 -69 -135 -80 -88 -25 -88 -24 -65 -37 36 -21 96 -91 131 -153 19 -33 34 -64 34 -67 0 -12 -50 -7 -78 7 -55 29 -104 107 -136 218 -9 31 -21 60 -27 64 -26 16 -34 -19 -34 -147 0 -125 1 -129 21 -129 23 0 34 17 34 53 0 18 4 16 25 -14 33 -44 127 -99 172 -101 36 -1 63 20 63 50 0 21 -77 145 -110 177 -17 16 -30 32 -30 36 0 4 23 15 52 25 28 9 74 34 102 55 28 22 64 45 79 52 19 8 27 18 25 32 -5 37 -41 26 -123 -41z"/>
 <path d="M3036 1819 c-9 -13 -16 -29 -16 -35 0 -6 -7 -17 -15 -24 -8 -7 -12 -16 -9 -21 3 -5 -7 -36 -21 -68 -27 -60 -27 -81 1 -81 16 0 53 72 54 103 0 32 20 17 20 -15 0 -18 5 -53 11 -78 6 -25 12 -51 13 -58 4 -25 108 -121 143 -133 45 -15 118 -6 143 16 20 18 29 90 12 97 -4 2 -25 28 -47 58 -21 30 -56 73 -77 95 -21 22 -38 43 -38 47 0 17 115 40 177 35 35 -2 63 -1 63 3 0 4 -17 15 -38 24 -39 17 -82 16 -142 -4 -14 -4 -46 -14 -72 -21 -27 -7 -48 -17 -48 -22 0 -5 19 -28 43 -51 73 -70 149 -180 145 -210 -3 -18 -11 -21 -56 -24 -47 -3 -58 1 -101 32 -62 46 -78 86 -90 220 -11 123 -26 155 -55 115z"/>
 <path d="M5612 1759 c-87 -7 -128 -21 -117 -40 3 -4 22 -1 43 8 31 13 68 15 222 10 190 -6 276 -20 360 -62 19 -10 54 -27 77 -38 22 -11 63 -37 90 -58 26 -20 66 -47 88 -58 122 -64 120 -224 -5 -358 -32 -35 -46 -43 -75 -43 -36 0 -95 34 -95 54 0 6 -20 29 -44 51 -166 153 -192 156 -273 36 -1 -2 -24 18 -50 45 -93 96 -135 124 -185 124 -41 0 -47 -3 -58 -30 -7 -17 -11 -53 -8 -85 5 -65 3 -66 -88 -35 -57 20 -104 20 -104 0 0 -6 -5 -10 -11 -10 -8 0 -10 35 -8 115 3 85 1 116 -8 119 -28 11 -34 -37 -34 -252 1 -210 -22 -446 -45 -484 -10 -16 -15 -36 -17 -68 -3 -38 35 -34 44 5 4 17 12 44 18 60 19 55 41 259 41 378 0 143 8 148 77 45 50 -75 100 -128 119 -128 6 0 18 7 25 16 12 14 10 19 -10 33 -24 17 -56 47 -81 77 -8 10 -26 32 -40 48 l-25 29 36 -5 c19 -4 77 -27 128 -52 51 -25 97 -43 102 -40 16 10 9 32 -16 52 -14 11 -25 25 -25 31 0 6 -4 11 -8 11 -13 0 -32 47 -32 79 0 47 23 57 72 31 24 -12 59 -37 78 -55 19 -18 49 -40 67 -49 41 -20 49 -37 58 -109 8 -65 33 -104 58 -94 21 8 22 35 1 58 -24 26 -30 123 -10 154 9 14 24 25 34 25 32 0 109 -55 149 -105 89 -113 121 -133 190 -120 50 9 99 62 146 156 41 85 48 148 22 228 -6 21 -93 98 -159 143 -93 63 -113 74 -151 87 -22 8 -61 24 -87 36 -64 31 -299 48 -476 34z"/>
 <path d="M4477 1523 c-3 -5 -8 -66 -11 -138 -3 -71 -8 -164 -11 -205 -3 -41 -7 -148 -10 -237 -4 -156 -4 -163 15 -163 26 0 42 32 31 62 -5 13 -7 98 -4 189 13 461 13 499 4 499 -5 0 -12 -3 -14 -7z"/>
 <path d="M5129 1515 c-26 -14 -50 -60 -64 -122 -9 -44 -19 -48 -36 -15 -19 38 -40 62 -55 62 -8 0 -28 -17 -46 -37 -114 -129 -118 -132 -145 -122 -14 5 -48 30 -76 55 -70 63 -105 80 -124 62 -11 -11 -11 -21 -3 -42 5 -15 10 -37 10 -48 0 -34 103 -138 136 -138 7 0 26 11 42 25 17 14 34 25 40 25 5 0 38 -42 72 -92 34 -51 70 -102 80 -113 15 -17 26 -41 36 -80 37 -140 41 -177 22 -222 -12 -30 -15 -38 -17 -52 0 -5 -17 -25 -38 -44 -62 -61 -154 -70 -292 -30 -56 16 -147 59 -169 81 -8 7 -28 20 -45 28 -18 9 -45 26 -62 39 -16 12 -43 25 -58 29 -16 4 -52 28 -79 54 -55 50 -138 158 -138 178 0 16 -31 27 -43 15 -10 -10 31 -101 59 -131 72 -77 95 -100 100 -100 3 0 72 -43 152 -97 178 -117 212 -132 327 -150 104 -16 211 -4 257 28 63 45 117 195 92 260 -7 19 -18 60 -24 92 -9 45 -28 83 -83 165 -40 59 -75 109 -80 110 -4 2 -14 17 -23 34 l-16 30 67 66 67 67 17 -24 c10 -13 26 -47 35 -75 9 -28 20 -57 25 -65 16 -25 41 5 39 47 -1 50 26 182 43 210 9 14 24 22 41 22 30 0 37 14 12 24 -21 8 -25 7 -55 -9z m-499 -155 c0 -5 6 -10 13 -10 7 0 26 -14 43 -31 16 -17 42 -37 57 -46 28 -14 28 -15 11 -34 -21 -23 -37 -24 -55 -3 -7 9 -23 20 -35 24 -22 9 -67 87 -58 102 7 11 24 10 24 -2z"/>
 <path d="M4797 953 c-20 -19 10 -92 31 -79 19 12 19 63 0 75 -21 13 -23 13 -31 4z"/>
 </g>

</svg>
