<?xml-stylesheet type='text/css' href='/styles.css' ?>
<svg xmlns="http://www.w3.org/2000/svg" xmlns:xlink="http://www.w3.org/1999/xlink" version="1.2" width="59.24mm" height="13.58mm" viewBox="-1.5163 -0.0000 33.7126 7.7279">
<line transform="translate(0.0000, 6.7279)" stroke-linejoin="round" stroke-linecap="round" stroke-width="0.1000" stroke="currentColor" x1="0.0500" y1="-0.0000" x2="32.1463" y2="-0.0000"/>
<line transform="translate(0.0000, 5.7279)" stroke-linejoin="round" stroke-linecap="round" stroke-width="0.1000" stroke="currentColor" x1="0.0500" y1="-0.0000" x2="32.1463" y2="-0.0000"/>
<line transform="translate(0.0000, 4.7279)" stroke-linejoin="round" stroke-linecap="round" stroke-width="0.1000" stroke="currentColor" x1="0.0500" y1="-0.0000" x2="32.1463" y2="-0.0000"/>
<line transform="translate(0.0000, 3.7279)" stroke-linejoin="round" stroke-linecap="round" stroke-width="0.1000" stroke="currentColor" x1="0.0500" y1="-0.0000" x2="32.1463" y2="-0.0000"/>
<line transform="translate(0.0000, 2.7279)" stroke-linejoin="round" stroke-linecap="round" stroke-width="0.1000" stroke="currentColor" x1="0.0500" y1="-0.0000" x2="32.1463" y2="-0.0000"/>
<path transform="translate(31.3463, 4.2279) scale(0.0040, -0.0040)" d="M0 0c0 31 25 56 56 56s56 -25 56 -56s-25 -56 -56 -56s-56 25 -56 56z" fill="currentColor"/>
<path transform="translate(31.3463, 5.2279) scale(0.0040, -0.0040)" d="M0 0c0 31 25 56 56 56s56 -25 56 -56s-25 -56 -56 -56s-56 25 -56 56z" fill="currentColor"/>
<path transform="translate(0.0000, 4.2279) scale(0.0040, -0.0040)" d="M0 0c0 31 25 56 56 56s56 -25 56 -56s-25 -56 -56 -56s-56 25 -56 56z" fill="currentColor"/>
<path transform="translate(0.0000, 5.2279) scale(0.0040, -0.0040)" d="M0 0c0 31 25 56 56 56s56 -25 56 -56s-25 -56 -56 -56s-56 25 -56 56z" fill="currentColor"/>
<path transform="translate(12.6168, 5.7279) scale(0.0040, -0.0040)" d="M218 136c55 0 108 -28 108 -89c0 -71 -55 -121 -102 -149c-35 -21 -75 -34 -116 -34c-55 0 -108 28 -108 89c0 71 55 121 102 149c35 21 75 34 116 34z" fill="currentColor"/>
<rect transform="translate(11.3518, 4.7279)" x="-0.0650" y="-1.8100" width="0.1300" height="3.1239" ry="0.0400" fill="currentColor"/>
<path transform="translate(10.1126, 6.2279) scale(0.0040, -0.0040)" d="M218 136c55 0 108 -28 108 -89c0 -71 -55 -121 -102 -149c-35 -21 -75 -34 -116 -34c-55 0 -108 28 -108 89c0 71 55 121 102 149c35 21 75 34 116 34z" fill="currentColor"/>
<rect transform="translate(8.8476, 4.7279)" x="-0.0650" y="-1.8100" width="0.1300" height="3.6239" ry="0.0400" fill="currentColor"/>
<path transform="translate(7.6084, 6.7279) scale(0.0040, -0.0040)" d="M218 136c55 0 108 -28 108 -89c0 -71 -55 -121 -102 -149c-35 -21 -75 -34 -116 -34c-55 0 -108 28 -108 89c0 71 55 121 102 149c35 21 75 34 116 34z" fill="currentColor"/>
<path transform="translate(3.6542, 6.2279) scale(0.0040, -0.0040)" d="M216 -312c0 -10 -8 -19 -18 -19s-19 9 -19 19v145l-83 -31v-158c0 -10 -9 -19 -19 -19s-18 9 -18 19v145l-32 -12c-2 -1 -5 -1 -7 -1c-11 0 -20 9 -20 20v60c0 8 5 16 13 19l46 16v160l-32 -11c-2 -1 -5 -1 -7 -1c-11 0 -20 9 -20 20v60c0 8 5 15 13 18l46 17v158
c0 10 8 19 18 19s19 -9 19 -19v-145l83 31v158c0 10 9 19 19 19s18 -9 18 -19v-145l32 12c2 1 5 1 7 1c11 0 20 -9 20 -20v-60c0 -8 -5 -16 -13 -19l-46 -16v-160l32 11c2 1 5 1 7 1c11 0 20 -9 20 -20v-60c0 -8 -5 -15 -13 -18l-46 -17v-158zM96 65v-160l83 30v160z" fill="currentColor"/>
<rect transform="translate(6.3434, 4.7279)" x="-0.0650" y="-1.8100" width="0.1300" height="3.1239" ry="0.0400" fill="currentColor"/>
<path transform="translate(5.1042, 6.2279) scale(0.0040, -0.0040)" d="M218 136c55 0 108 -28 108 -89c0 -71 -55 -121 -102 -149c-35 -21 -75 -34 -116 -34c-55 0 -108 28 -108 89c0 71 55 121 102 149c35 21 75 34 116 34z" fill="currentColor"/>
<polygon transform="translate(2.9242, 2.9179)" stroke-linejoin="round" stroke-linecap="round" stroke-width="0.0800" fill="currentColor" stroke="currentColor" points="8.4526 -0.2000 8.4526 0.2000 0.0400 0.2000 0.0400 -0.2000"/>
<polygon transform="translate(2.9242, 3.7279)" stroke-linejoin="round" stroke-linecap="round" stroke-width="0.0800" fill="currentColor" stroke="currentColor" points="8.4526 -0.2000 8.4526 0.2000 0.0400 0.2000 0.0400 -0.2000"/>
<rect transform="translate(20.0645, 4.7279)" x="-0.0650" y="-2.0000" width="0.1300" height="2.8139" ry="0.0400" fill="currentColor"/>
<polygon transform="translate(13.7911, 2.7279)" stroke-linejoin="round" stroke-linecap="round" stroke-width="0.0800" fill="currentColor" stroke="currentColor" points="6.2984 -0.2000 6.2984 0.2000 0.0400 0.2000 0.0400 -0.2000"/>
<polygon transform="translate(17.2453, 3.5379)" stroke-linejoin="round" stroke-linecap="round" stroke-width="0.0800" fill="currentColor" stroke="currentColor" points="2.8442 -0.2000 2.8442 0.2000 0.0400 0.2000 0.0400 -0.2000"/>
<polygon transform="translate(22.5037, 2.9179)" stroke-linejoin="round" stroke-linecap="round" stroke-width="0.0800" fill="currentColor" stroke="currentColor" points="7.6026 -0.2000 7.6026 0.2000 0.0400 0.2000 0.0400 -0.2000"/>
<polygon transform="translate(22.5037, 3.7279)" stroke-linejoin="round" stroke-linecap="round" stroke-width="0.0800" fill="currentColor" stroke="currentColor" points="7.6026 -0.2000 7.6026 0.2000 0.0400 0.2000 0.0400 -0.2000"/>
<rect transform="translate(22.5687, 4.7279)" x="-0.0650" y="-1.8100" width="0.1300" height="3.1239" ry="0.0400" fill="currentColor"/>
<path transform="translate(21.3295, 6.2279) scale(0.0040, -0.0040)" d="M218 136c55 0 108 -28 108 -89c0 -71 -55 -121 -102 -149c-35 -21 -75 -34 -116 -34c-55 0 -108 28 -108 89c0 71 55 121 102 149c35 21 75 34 116 34z" fill="currentColor"/>
<rect transform="translate(13.8561, 4.7279)" x="-0.0650" y="-2.0000" width="0.1300" height="2.8139" ry="0.0400" fill="currentColor"/>
<path transform="translate(18.8253, 5.7279) scale(0.0040, -0.0040)" d="M218 136c55 0 108 -28 108 -89c0 -71 -55 -121 -102 -149c-35 -21 -75 -34 -116 -34c-55 0 -108 28 -108 89c0 71 55 121 102 149c35 21 75 34 116 34z" fill="currentColor"/>
<rect transform="translate(17.3103, 4.7279)" x="-0.0650" y="-2.0000" width="0.1300" height="3.8139" ry="0.0400" fill="currentColor"/>
<path transform="translate(16.0711, 6.7279) scale(0.0040, -0.0040)" d="M218 136c55 0 108 -28 108 -89c0 -71 -55 -121 -102 -149c-35 -21 -75 -34 -116 -34c-55 0 -108 28 -108 89c0 71 55 121 102 149c35 21 75 34 116 34z" fill="currentColor"/>
<rect transform="translate(25.0729, 4.7279)" x="-0.0650" y="-1.8100" width="0.1300" height="3.6239" ry="0.0400" fill="currentColor"/>
<path transform="translate(23.8337, 6.7279) scale(0.0040, -0.0040)" d="M218 136c55 0 108 -28 108 -89c0 -71 -55 -121 -102 -149c-35 -21 -75 -34 -116 -34c-55 0 -108 28 -108 89c0 71 55 121 102 149c35 21 75 34 116 34z" fill="currentColor"/>
<rect transform="translate(2.9892, 4.7279)" x="-0.0650" y="-1.8100" width="0.1300" height="3.6239" ry="0.0400" fill="currentColor"/>
<text transform="translate(-1.5163, 1.8437)" font-family="serif" font-size="2.7719" text-anchor="start" fill="currentColor">
<tspan>
27.</tspan>
</text>
<path transform="translate(1.7500, 6.7279) scale(0.0040, -0.0040)" d="M218 136c55 0 108 -28 108 -89c0 -71 -55 -121 -102 -149c-35 -21 -75 -34 -116 -34c-55 0 -108 28 -108 89c0 71 55 121 102 149c35 21 75 34 116 34z" fill="currentColor"/>
<rect transform="translate(30.0813, 4.7279)" x="-0.0650" y="-1.8100" width="0.1300" height="3.6239" ry="0.0400" fill="currentColor"/>
<path transform="translate(28.8421, 6.7279) scale(0.0040, -0.0040)" d="M218 136c55 0 108 -28 108 -89c0 -71 -55 -121 -102 -149c-35 -21 -75 -34 -116 -34c-55 0 -108 28 -108 89c0 71 55 121 102 149c35 21 75 34 116 34z" fill="currentColor"/>
<path transform="translate(26.3379, 6.2279) scale(0.0040, -0.0040)" d="M218 136c55 0 108 -28 108 -89c0 -71 -55 -121 -102 -149c-35 -21 -75 -34 -116 -34c-55 0 -108 28 -108 89c0 71 55 121 102 149c35 21 75 34 116 34z" fill="currentColor"/>
<rect transform="translate(27.5771, 4.7279)" x="-0.0650" y="-1.8100" width="0.1300" height="3.1239" ry="0.0400" fill="currentColor"/>
</svg>
