<?xml-stylesheet type='text/css' href='/styles.css' ?>
<svg xmlns="http://www.w3.org/2000/svg" xmlns:xlink="http://www.w3.org/1999/xlink" version="1.2" width="34.16mm" height="13.64mm" viewBox="-1.5163 -0.0000 19.4386 7.7620">
<line transform="translate(0.0000, 6.7620)" stroke-linejoin="round" stroke-linecap="round" stroke-width="0.1000" stroke="currentColor" x1="0.0500" y1="-0.0000" x2="17.8723" y2="-0.0000"/>
<line transform="translate(0.0000, 5.7620)" stroke-linejoin="round" stroke-linecap="round" stroke-width="0.1000" stroke="currentColor" x1="0.0500" y1="-0.0000" x2="17.8723" y2="-0.0000"/>
<line transform="translate(0.0000, 4.7620)" stroke-linejoin="round" stroke-linecap="round" stroke-width="0.1000" stroke="currentColor" x1="0.0500" y1="-0.0000" x2="17.8723" y2="-0.0000"/>
<line transform="translate(0.0000, 3.7620)" stroke-linejoin="round" stroke-linecap="round" stroke-width="0.1000" stroke="currentColor" x1="0.0500" y1="-0.0000" x2="17.8723" y2="-0.0000"/>
<line transform="translate(0.0000, 2.7620)" stroke-linejoin="round" stroke-linecap="round" stroke-width="0.1000" stroke="currentColor" x1="0.0500" y1="-0.0000" x2="17.8723" y2="-0.0000"/>
<path transform="translate(17.0723, 4.2620) scale(0.0040, -0.0040)" d="M0 0c0 31 25 56 56 56s56 -25 56 -56s-25 -56 -56 -56s-56 25 -56 56z" fill="currentColor"/>
<path transform="translate(17.0723, 5.2620) scale(0.0040, -0.0040)" d="M0 0c0 31 25 56 56 56s56 -25 56 -56s-25 -56 -56 -56s-56 25 -56 56z" fill="currentColor"/>
<path transform="translate(0.0000, 4.2620) scale(0.0040, -0.0040)" d="M0 0c0 31 25 56 56 56s56 -25 56 -56s-25 -56 -56 -56s-56 25 -56 56z" fill="currentColor"/>
<path transform="translate(0.0000, 5.2620) scale(0.0040, -0.0040)" d="M0 0c0 31 25 56 56 56s56 -25 56 -56s-25 -56 -56 -56s-56 25 -56 56z" fill="currentColor"/>
<path transform="translate(1.7500, 6.7620) scale(0.0040, -0.0040)" d="M314 65c0 24 -21 41 -42 41c-4 0 -8 0 -12 -1c-31 -9 -78 -40 -115 -64s-84 -53 -104 -78c-7 -8 -10 -18 -10 -28c0 -24 21 -41 42 -41c4 0 8 0 12 1c31 9 77 40 114 64s84 53 104 78c7 8 11 18 11 28zM262 136c46 0 82 -21 82 -71c0 -19 -4 -39 -10 -57
c-12 -37 -32 -72 -64 -94c-53 -36 -113 -50 -187 -50c-46 0 -83 21 -83 71c0 19 5 39 11 57c12 37 31 72 63 94c53 36 114 50 188 50z" fill="currentColor"/>
<path transform="translate(12.0950, 4.2620) scale(0.0040, -0.0040)" d="M314 65c0 24 -21 41 -42 41c-4 0 -8 0 -12 -1c-31 -9 -78 -40 -115 -64s-84 -53 -104 -78c-7 -8 -10 -18 -10 -28c0 -24 21 -41 42 -41c4 0 8 0 12 1c31 9 77 40 114 64s84 53 104 78c7 8 11 18 11 28zM262 136c46 0 82 -21 82 -71c0 -19 -4 -39 -10 -57
c-12 -37 -32 -72 -64 -94c-53 -36 -113 -50 -187 -50c-46 0 -83 21 -83 71c0 19 5 39 11 57c12 37 31 72 63 94c53 36 114 50 188 50z" fill="currentColor"/>
<path transform="translate(13.9223, 4.2620) scale(0.0040, -0.0040)" d="M0 0c0 31 25 56 56 56s56 -25 56 -56s-25 -56 -56 -56s-56 25 -56 56z" fill="currentColor"/>
<rect transform="translate(12.1600, 4.7620)" x="-0.0650" y="-0.2410" width="0.1300" height="3.2410" ry="0.0400" fill="currentColor"/>
<text transform="translate(-1.5163, 1.8437)" font-family="serif" font-size="2.7719" text-anchor="start" fill="currentColor">
<tspan>
29.</tspan>
</text>
<path transform="translate(3.5773, 6.2620) scale(0.0040, -0.0040)" d="M0 0c0 31 25 56 56 56s56 -25 56 -56s-25 -56 -56 -56s-56 25 -56 56z" fill="currentColor"/>
<rect transform="translate(3.0623, 4.7620)" x="-0.0650" y="-1.5000" width="0.1300" height="3.2410" ry="0.0400" fill="currentColor"/>
<path transform="translate(6.9773, 5.7620) scale(0.0040, -0.0040)" d="M314 65c0 24 -21 41 -42 41c-4 0 -8 0 -12 -1c-31 -9 -78 -40 -115 -64s-84 -53 -104 -78c-7 -8 -10 -18 -10 -28c0 -24 21 -41 42 -41c4 0 8 0 12 1c31 9 77 40 114 64s84 53 104 78c7 8 11 18 11 28zM262 136c46 0 82 -21 82 -71c0 -19 -4 -39 -10 -57
c-12 -37 -32 -72 -64 -94c-53 -36 -113 -50 -187 -50c-46 0 -83 21 -83 71c0 19 5 39 11 57c12 37 31 72 63 94c53 36 114 50 188 50z" fill="currentColor"/>
<path transform="translate(8.8047, 5.2620) scale(0.0040, -0.0040)" d="M0 0c0 31 25 56 56 56s56 -25 56 -56s-25 -56 -56 -56s-56 25 -56 56z" fill="currentColor"/>
<rect transform="translate(8.2897, 4.7620)" x="-0.0650" y="-2.5000" width="0.1300" height="3.2410" ry="0.0400" fill="currentColor"/>
</svg>
