<?xml-stylesheet type='text/css' href='/styles.css' ?>
<svg xmlns="http://www.w3.org/2000/svg" xmlns:xlink="http://www.w3.org/1999/xlink" version="1.2" width="23.30mm" height="12.84mm" viewBox="-0.8164 -0.0000 13.2572 7.3070">
<line transform="translate(0.0000, 6.7620)" stroke-linejoin="round" stroke-linecap="round" stroke-width="0.1000" stroke="currentColor" x1="0.0500" y1="-0.0000" x2="12.3909" y2="-0.0000"/>
<line transform="translate(0.0000, 5.7620)" stroke-linejoin="round" stroke-linecap="round" stroke-width="0.1000" stroke="currentColor" x1="0.0500" y1="-0.0000" x2="12.3909" y2="-0.0000"/>
<line transform="translate(0.0000, 4.7620)" stroke-linejoin="round" stroke-linecap="round" stroke-width="0.1000" stroke="currentColor" x1="0.0500" y1="-0.0000" x2="12.3909" y2="-0.0000"/>
<line transform="translate(0.0000, 3.7620)" stroke-linejoin="round" stroke-linecap="round" stroke-width="0.1000" stroke="currentColor" x1="0.0500" y1="-0.0000" x2="12.3909" y2="-0.0000"/>
<line transform="translate(0.0000, 2.7620)" stroke-linejoin="round" stroke-linecap="round" stroke-width="0.1000" stroke="currentColor" x1="0.0500" y1="-0.0000" x2="12.3909" y2="-0.0000"/>
<path transform="translate(11.5909, 4.2620) scale(0.0040, -0.0040)" d="M0 0c0 31 25 56 56 56s56 -25 56 -56s-25 -56 -56 -56s-56 25 -56 56z" fill="currentColor"/>
<path transform="translate(11.5909, 5.2620) scale(0.0040, -0.0040)" d="M0 0c0 31 25 56 56 56s56 -25 56 -56s-25 -56 -56 -56s-56 25 -56 56z" fill="currentColor"/>
<path transform="translate(0.0000, 4.2620) scale(0.0040, -0.0040)" d="M0 0c0 31 25 56 56 56s56 -25 56 -56s-25 -56 -56 -56s-56 25 -56 56z" fill="currentColor"/>
<path transform="translate(0.0000, 5.2620) scale(0.0040, -0.0040)" d="M0 0c0 31 25 56 56 56s56 -25 56 -56s-25 -56 -56 -56s-56 25 -56 56z" fill="currentColor"/>
<polygon transform="translate(7.7567, 3.5720)" stroke-linejoin="round" stroke-linecap="round" stroke-width="0.0800" fill="currentColor" stroke="currentColor" points="2.5942 -0.0100 2.5942 0.3900 0.0400 0.2000 0.0400 -0.2000"/>
<path transform="translate(3.9500, 6.7620) scale(0.0040, -0.0040)" d="M218 136c55 0 108 -28 108 -89c0 -71 -55 -121 -102 -149c-35 -21 -75 -34 -116 -34c-55 0 -108 28 -108 89c0 71 55 121 102 149c35 21 75 34 116 34z" fill="currentColor"/>
<rect transform="translate(5.1892, 4.7620)" x="-0.0650" y="-1.5000" width="0.1300" height="3.3139" ry="0.0400" fill="currentColor"/>
<path transform="translate(5.2542, 3.3020) scale(0.0040, -0.0040)" d="M0 0c0 -197 207 -336 207 -533c0 -71 -15 -141 -41 -207c-5 -8 -13 -12 -20 -12c-13 0 -26 11 -23 27c26 61 42 126 42 192c0 103 -94 208 -165 283h-16v250h16z" fill="currentColor"/>
<path transform="translate(6.5824, 6.2620) scale(0.0040, -0.0040)" d="M218 136c55 0 108 -28 108 -89c0 -71 -55 -121 -102 -149c-35 -21 -75 -34 -116 -34c-55 0 -108 28 -108 89c0 71 55 121 102 149c35 21 75 34 116 34z" fill="currentColor"/>
<rect transform="translate(7.8217, 4.7620)" x="-0.0650" y="-1.1853" width="0.1300" height="2.4992" ry="0.0400" fill="currentColor"/>
<path transform="translate(9.0867, 6.7620) scale(0.0040, -0.0040)" d="M218 136c55 0 108 -28 108 -89c0 -71 -55 -121 -102 -149c-35 -21 -75 -34 -116 -34c-55 0 -108 28 -108 89c0 71 55 121 102 149c35 21 75 34 116 34z" fill="currentColor"/>
<rect transform="translate(10.3259, 4.7620)" x="-0.0650" y="-1.0047" width="0.1300" height="2.8186" ry="0.0400" fill="currentColor"/>
<path transform="translate(1.7500, 4.7620) scale(0.0040, -0.0040)" d="M72 -250l117 326c-34 -12 -69 -22 -105 -22c-46 0 -87 33 -87 79c0 40 33 72 73 72c25 0 48 -15 56 -39c10 -28 6 -59 35 -59c16 0 54 48 61 63c6 12 23 12 28 0l-123 -420c-8 -7 -17 -10 -27 -10s-20 3 -28 10z" fill="currentColor"/>
<text transform="translate(-0.8164, 1.8779)" font-family="serif" font-size="2.7719" text-anchor="start" fill="currentColor">
<tspan>
3.</tspan>
</text>
</svg>
