<?xml-stylesheet type='text/css' href='/styles.css' ?>
<svg xmlns="http://www.w3.org/2000/svg" xmlns:xlink="http://www.w3.org/1999/xlink" version="1.2" width="22.01mm" height="11.97mm" viewBox="-1.5163 -0.0000 12.5247 6.8120">
<line transform="translate(0.0000, 6.7620)" stroke-linejoin="round" stroke-linecap="round" stroke-width="0.1000" stroke="currentColor" x1="0.0500" y1="-0.0000" x2="10.9584" y2="-0.0000"/>
<line transform="translate(0.0000, 5.7620)" stroke-linejoin="round" stroke-linecap="round" stroke-width="0.1000" stroke="currentColor" x1="0.0500" y1="-0.0000" x2="10.9584" y2="-0.0000"/>
<line transform="translate(0.0000, 4.7620)" stroke-linejoin="round" stroke-linecap="round" stroke-width="0.1000" stroke="currentColor" x1="0.0500" y1="-0.0000" x2="10.9584" y2="-0.0000"/>
<line transform="translate(0.0000, 3.7620)" stroke-linejoin="round" stroke-linecap="round" stroke-width="0.1000" stroke="currentColor" x1="0.0500" y1="-0.0000" x2="10.9584" y2="-0.0000"/>
<line transform="translate(0.0000, 2.7620)" stroke-linejoin="round" stroke-linecap="round" stroke-width="0.1000" stroke="currentColor" x1="0.0500" y1="-0.0000" x2="10.9584" y2="-0.0000"/>
<path transform="translate(0.0000, 4.2620) scale(0.0040, -0.0040)" d="M0 0c0 31 25 56 56 56s56 -25 56 -56s-25 -56 -56 -56s-56 25 -56 56z" fill="currentColor"/>
<path transform="translate(0.0000, 5.2620) scale(0.0040, -0.0040)" d="M0 0c0 31 25 56 56 56s56 -25 56 -56s-25 -56 -56 -56s-56 25 -56 56z" fill="currentColor"/>
<path transform="translate(10.1584, 4.2620) scale(0.0040, -0.0040)" d="M0 0c0 31 25 56 56 56s56 -25 56 -56s-25 -56 -56 -56s-56 25 -56 56z" fill="currentColor"/>
<path transform="translate(10.1584, 5.2620) scale(0.0040, -0.0040)" d="M0 0c0 31 25 56 56 56s56 -25 56 -56s-25 -56 -56 -56s-56 25 -56 56z" fill="currentColor"/>
<path transform="translate(1.7500, 5.7620) scale(0.0040, -0.0040)" d="M218 136c55 0 108 -28 108 -89c0 -71 -55 -121 -102 -149c-35 -21 -75 -34 -116 -34c-55 0 -108 28 -108 89c0 71 55 121 102 149c35 21 75 34 116 34z" fill="currentColor"/>
<polygon transform="translate(2.9242, 2.7620)" stroke-linejoin="round" stroke-linecap="round" stroke-width="0.0800" fill="currentColor" stroke="currentColor" points="2.5942 -0.0100 2.5942 0.3900 0.0400 0.2000 0.0400 -0.2000"/>
<polygon transform="translate(2.9242, 3.5720)" stroke-linejoin="round" stroke-linecap="round" stroke-width="0.0800" fill="currentColor" stroke="currentColor" points="2.5942 -0.0100 2.5942 0.3900 0.0400 0.2000 0.0400 -0.2000"/>
<path transform="translate(6.7584, 4.7620) scale(0.0040, -0.0040)" d="M72 -250l117 326c-34 -12 -69 -22 -105 -22c-46 0 -87 33 -87 79c0 40 33 72 73 72c25 0 48 -15 56 -39c10 -28 6 -59 35 -59c16 0 54 48 61 63c6 12 23 12 28 0l-123 -420c-8 -7 -17 -10 -27 -10s-20 3 -28 10z" fill="currentColor"/>
<text transform="translate(-1.5163, 1.8779)" font-family="serif" font-size="2.7719" text-anchor="start" fill="currentColor">
<tspan>
33.</tspan>
</text>
<rect transform="translate(2.9892, 4.7620)" x="-0.0650" y="-1.9953" width="0.1300" height="2.8092" ry="0.0400" fill="currentColor"/>
<path transform="translate(4.2542, 6.2620) scale(0.0040, -0.0040)" d="M218 136c55 0 108 -28 108 -89c0 -71 -55 -121 -102 -149c-35 -21 -75 -34 -116 -34c-55 0 -108 28 -108 89c0 71 55 121 102 149c35 21 75 34 116 34z" fill="currentColor"/>
<rect transform="translate(5.4934, 4.7620)" x="-0.0650" y="-1.8147" width="0.1300" height="3.1286" ry="0.0400" fill="currentColor"/>
</svg>
