<svg xmlns="http://www.w3.org/2000/svg" xmlns:xlink="http://www.w3.org/1999/xlink" version="1.2" width="22.65mm" height="12.76mm" viewBox="-1.5163 -0.0000 12.8905 7.2620">
<line transform="translate(0.0000, 6.7620)" stroke-linejoin="round" stroke-linecap="round" stroke-width="0.1000" stroke="currentColor" x1="0.0500" y1="-0.0000" x2="11.3242" y2="-0.0000"/>
<line transform="translate(0.0000, 5.7620)" stroke-linejoin="round" stroke-linecap="round" stroke-width="0.1000" stroke="currentColor" x1="0.0500" y1="-0.0000" x2="11.3242" y2="-0.0000"/>
<line transform="translate(0.0000, 4.7620)" stroke-linejoin="round" stroke-linecap="round" stroke-width="0.1000" stroke="currentColor" x1="0.0500" y1="-0.0000" x2="11.3242" y2="-0.0000"/>
<line transform="translate(0.0000, 3.7620)" stroke-linejoin="round" stroke-linecap="round" stroke-width="0.1000" stroke="currentColor" x1="0.0500" y1="-0.0000" x2="11.3242" y2="-0.0000"/>
<line transform="translate(0.0000, 2.7620)" stroke-linejoin="round" stroke-linecap="round" stroke-width="0.1000" stroke="currentColor" x1="0.0500" y1="-0.0000" x2="11.3242" y2="-0.0000"/>
<path transform="translate(0.0000, 4.2620) scale(0.0040, -0.0040)" d="M0 0c0 31 25 56 56 56s56 -25 56 -56s-25 -56 -56 -56s-56 25 -56 56z" fill="currentColor"/>
<path transform="translate(0.0000, 5.2620) scale(0.0040, -0.0040)" d="M0 0c0 31 25 56 56 56s56 -25 56 -56s-25 -56 -56 -56s-56 25 -56 56z" fill="currentColor"/>
<path transform="translate(10.5242, 4.2620) scale(0.0040, -0.0040)" d="M0 0c0 31 25 56 56 56s56 -25 56 -56s-25 -56 -56 -56s-56 25 -56 56z" fill="currentColor"/>
<path transform="translate(10.5242, 5.2620) scale(0.0040, -0.0040)" d="M0 0c0 31 25 56 56 56s56 -25 56 -56s-25 -56 -56 -56s-56 25 -56 56z" fill="currentColor"/>
<path transform="translate(4.7523, 3.7620) scale(0.0040, -0.0040)" d="M218 136c55 0 108 -28 108 -89c0 -71 -55 -121 -102 -149c-35 -21 -75 -34 -116 -34c-55 0 -108 28 -108 89c0 71 55 121 102 149c35 21 75 34 116 34z" fill="currentColor"/>
<rect transform="translate(4.8173, 4.7620)" x="-0.0650" y="-0.8139" width="0.1300" height="3.3139" ry="0.0400" fill="currentColor"/>
<path transform="translate(7.5220, 5.7620) scale(0.0040, -0.0040)" d="M218 136c55 0 108 -28 108 -89c0 -71 -55 -121 -102 -149c-35 -21 -75 -34 -116 -34c-55 0 -108 28 -108 89c0 71 55 121 102 149c35 21 75 34 116 34z" fill="currentColor"/>
<rect transform="translate(8.7612, 4.7620)" x="-0.0650" y="-2.5000" width="0.1300" height="3.3139" ry="0.0400" fill="currentColor"/>
<rect transform="translate(1.8150, 4.7620)" x="-0.0650" y="-0.8139" width="0.1300" height="3.3139" ry="0.0400" fill="currentColor"/>
<path transform="translate(1.7500, 3.7620) scale(0.0040, -0.0040)" d="M218 136c55 0 108 -28 108 -89c0 -71 -55 -121 -102 -149c-35 -21 -75 -34 -116 -34c-55 0 -108 28 -108 89c0 71 55 121 102 149c35 21 75 34 116 34z" fill="currentColor"/>
<text transform="translate(-1.5163, 1.8779)" font-family="serif" font-size="2.7719" text-anchor="start" fill="currentColor">
<tspan>
45.</tspan>
</text>
</svg>
