<svg xmlns="http://www.w3.org/2000/svg" xmlns:xlink="http://www.w3.org/1999/xlink" version="1.2" width="16.03mm" height="11.91mm" viewBox="-1.5163 -0.0000 9.1247 6.7779">
<line transform="translate(0.0000, 6.7279)" stroke-linejoin="round" stroke-linecap="round" stroke-width="0.1000" stroke="currentColor" x1="0.0500" y1="-0.0000" x2="7.5584" y2="-0.0000"/>
<line transform="translate(0.0000, 5.7279)" stroke-linejoin="round" stroke-linecap="round" stroke-width="0.1000" stroke="currentColor" x1="0.0500" y1="-0.0000" x2="7.5584" y2="-0.0000"/>
<line transform="translate(0.0000, 4.7279)" stroke-linejoin="round" stroke-linecap="round" stroke-width="0.1000" stroke="currentColor" x1="0.0500" y1="-0.0000" x2="7.5584" y2="-0.0000"/>
<line transform="translate(0.0000, 3.7279)" stroke-linejoin="round" stroke-linecap="round" stroke-width="0.1000" stroke="currentColor" x1="0.0500" y1="-0.0000" x2="7.5584" y2="-0.0000"/>
<line transform="translate(0.0000, 2.7279)" stroke-linejoin="round" stroke-linecap="round" stroke-width="0.1000" stroke="currentColor" x1="0.0500" y1="-0.0000" x2="7.5584" y2="-0.0000"/>
<path transform="translate(0.0000, 4.2279) scale(0.0040, -0.0040)" d="M0 0c0 31 25 56 56 56s56 -25 56 -56s-25 -56 -56 -56s-56 25 -56 56z" fill="currentColor"/>
<path transform="translate(0.0000, 5.2279) scale(0.0040, -0.0040)" d="M0 0c0 31 25 56 56 56s56 -25 56 -56s-25 -56 -56 -56s-56 25 -56 56z" fill="currentColor"/>
<path transform="translate(6.7584, 4.2279) scale(0.0040, -0.0040)" d="M0 0c0 31 25 56 56 56s56 -25 56 -56s-25 -56 -56 -56s-56 25 -56 56z" fill="currentColor"/>
<path transform="translate(6.7584, 5.2279) scale(0.0040, -0.0040)" d="M0 0c0 31 25 56 56 56s56 -25 56 -56s-25 -56 -56 -56s-56 25 -56 56z" fill="currentColor"/>
<polygon transform="translate(2.9242, 2.9179)" stroke-linejoin="round" stroke-linecap="round" stroke-width="0.0800" fill="currentColor" stroke="currentColor" points="2.5942 -0.3900 2.5942 0.0100 0.0400 0.2000 0.0400 -0.2000"/>
<polygon transform="translate(2.9242, 3.7279)" stroke-linejoin="round" stroke-linecap="round" stroke-width="0.0800" fill="currentColor" stroke="currentColor" points="2.5942 -0.3900 2.5942 0.0100 0.0400 0.2000 0.0400 -0.2000"/>
<path transform="translate(1.7500, 6.2279) scale(0.0040, -0.0040)" d="M218 136c55 0 108 -28 108 -89c0 -71 -55 -121 -102 -149c-35 -21 -75 -34 -116 -34c-55 0 -108 28 -108 89c0 71 55 121 102 149c35 21 75 34 116 34z" fill="currentColor"/>
<text transform="translate(-1.5163, 1.8437)" font-family="serif" font-size="2.7719" text-anchor="start" fill="currentColor">
<tspan>
50.</tspan>
</text>
<rect transform="translate(2.9892, 4.7279)" x="-0.0650" y="-1.8147" width="0.1300" height="3.1286" ry="0.0400" fill="currentColor"/>
<path transform="translate(4.2542, 5.7279) scale(0.0040, -0.0040)" d="M218 136c55 0 108 -28 108 -89c0 -71 -55 -121 -102 -149c-35 -21 -75 -34 -116 -34c-55 0 -108 28 -108 89c0 71 55 121 102 149c35 21 75 34 116 34z" fill="currentColor"/>
<rect transform="translate(5.4934, 4.7279)" x="-0.0650" y="-1.9953" width="0.1300" height="2.8092" ry="0.0400" fill="currentColor"/>
</svg>
