<?xml-stylesheet type='text/css' href='/styles.css' ?>
<svg xmlns="http://www.w3.org/2000/svg" xmlns:xlink="http://www.w3.org/1999/xlink" version="1.2" width="27.30mm" height="11.91mm" viewBox="-0.8164 -0.0000 15.5365 6.7779">
<line transform="translate(0.0000, 6.7279)" stroke-linejoin="round" stroke-linecap="round" stroke-width="0.1000" stroke="currentColor" x1="0.0500" y1="-0.0000" x2="14.6701" y2="-0.0000"/>
<line transform="translate(0.0000, 5.7279)" stroke-linejoin="round" stroke-linecap="round" stroke-width="0.1000" stroke="currentColor" x1="0.0500" y1="-0.0000" x2="14.6701" y2="-0.0000"/>
<line transform="translate(0.0000, 4.7279)" stroke-linejoin="round" stroke-linecap="round" stroke-width="0.1000" stroke="currentColor" x1="0.0500" y1="-0.0000" x2="14.6701" y2="-0.0000"/>
<line transform="translate(0.0000, 3.7279)" stroke-linejoin="round" stroke-linecap="round" stroke-width="0.1000" stroke="currentColor" x1="0.0500" y1="-0.0000" x2="14.6701" y2="-0.0000"/>
<line transform="translate(0.0000, 2.7279)" stroke-linejoin="round" stroke-linecap="round" stroke-width="0.1000" stroke="currentColor" x1="0.0500" y1="-0.0000" x2="14.6701" y2="-0.0000"/>
<path transform="translate(0.0000, 4.2279) scale(0.0040, -0.0040)" d="M0 0c0 31 25 56 56 56s56 -25 56 -56s-25 -56 -56 -56s-56 25 -56 56z" fill="currentColor"/>
<path transform="translate(0.0000, 5.2279) scale(0.0040, -0.0040)" d="M0 0c0 31 25 56 56 56s56 -25 56 -56s-25 -56 -56 -56s-56 25 -56 56z" fill="currentColor"/>
<path transform="translate(13.8701, 4.2279) scale(0.0040, -0.0040)" d="M0 0c0 31 25 56 56 56s56 -25 56 -56s-25 -56 -56 -56s-56 25 -56 56z" fill="currentColor"/>
<path transform="translate(13.8701, 5.2279) scale(0.0040, -0.0040)" d="M0 0c0 31 25 56 56 56s56 -25 56 -56s-25 -56 -56 -56s-56 25 -56 56z" fill="currentColor"/>
<path transform="translate(1.7500, 4.7279)" stroke-width="0.0800" stroke-linejoin="round" stroke-linecap="round" stroke="currentColor" fill="currentColor" d="M1.1810 -1.1980C2.1355 -2.0506 5.8866 -2.0506 6.8410 -1.1980L6.8410 -1.1980C5.8866 -1.9306 2.1355 -1.9306 1.1810 -1.1980z"/>
<path transform="translate(7.8100, 4.2279) scale(0.0040, -0.0040)" d="M213 112c-50 0 -69 -43 -69 -88c0 -77 57 -136 134 -136c50 0 69 43 69 88c0 77 -57 136 -134 136zM491 0c0 -43 -34 -75 -72 -96c-53 -29 -114 -40 -174 -40s-120 11 -173 40c-38 21 -72 53 -72 96s34 75 72 96c53 29 113 40 173 40s121 -11 174 -40
c38 -21 72 -53 72 -96z" fill="currentColor"/>
<path transform="translate(1.7500, 4.2279) scale(0.0040, -0.0040)" d="M213 112c-50 0 -69 -43 -69 -88c0 -77 57 -136 134 -136c50 0 69 43 69 88c0 77 -57 136 -134 136zM491 0c0 -43 -34 -75 -72 -96c-53 -29 -114 -40 -174 -40s-120 11 -173 40c-38 21 -72 53 -72 96s34 75 72 96c53 29 113 40 173 40s121 -11 174 -40
c38 -21 72 -53 72 -96z" fill="currentColor"/>
<text transform="translate(-0.8164, 1.8437)" font-family="serif" font-size="2.7719" text-anchor="start" fill="currentColor">
<tspan>
6.</tspan>
</text>
</svg>
