<svg xmlns="http://www.w3.org/2000/svg" xmlns:xlink="http://www.w3.org/1999/xlink" version="1.2" width="89.68mm" height="14.54mm" viewBox="-0.8164 -0.0000 51.0354 8.2729">
<line transform="translate(0.0000, 6.7279)" stroke-linejoin="round" stroke-linecap="round" stroke-width="0.1000" stroke="currentColor" x1="0.0500" y1="-0.0000" x2="50.1691" y2="-0.0000"/>
<line transform="translate(0.0000, 5.7279)" stroke-linejoin="round" stroke-linecap="round" stroke-width="0.1000" stroke="currentColor" x1="0.0500" y1="-0.0000" x2="50.1691" y2="-0.0000"/>
<line transform="translate(0.0000, 4.7279)" stroke-linejoin="round" stroke-linecap="round" stroke-width="0.1000" stroke="currentColor" x1="0.0500" y1="-0.0000" x2="50.1691" y2="-0.0000"/>
<line transform="translate(0.0000, 3.7279)" stroke-linejoin="round" stroke-linecap="round" stroke-width="0.1000" stroke="currentColor" x1="0.0500" y1="-0.0000" x2="50.1691" y2="-0.0000"/>
<line transform="translate(0.0000, 2.7279)" stroke-linejoin="round" stroke-linecap="round" stroke-width="0.1000" stroke="currentColor" x1="0.0500" y1="-0.0000" x2="50.1691" y2="-0.0000"/>
<path transform="translate(49.3691, 4.2279) scale(0.0040, -0.0040)" d="M0 0c0 31 25 56 56 56s56 -25 56 -56s-25 -56 -56 -56s-56 25 -56 56z" fill="currentColor"/>
<path transform="translate(49.3691, 5.2279) scale(0.0040, -0.0040)" d="M0 0c0 31 25 56 56 56s56 -25 56 -56s-25 -56 -56 -56s-56 25 -56 56z" fill="currentColor"/>
<rect transform="translate(0.0000, 7.7279)" x="23.7388" y="-0.1000" width="1.9563" height="0.2000" ry="0.1000" fill="currentColor"/>
<rect transform="translate(0.0000, 7.7279)" x="21.1064" y="-0.1000" width="1.9563" height="0.2000" ry="0.1000" fill="currentColor"/>
<rect transform="translate(0.0000, 7.7279)" x="18.4739" y="-0.1000" width="1.9563" height="0.2000" ry="0.1000" fill="currentColor"/>
<path transform="translate(0.0000, 4.2279) scale(0.0040, -0.0040)" d="M0 0c0 31 25 56 56 56s56 -25 56 -56s-25 -56 -56 -56s-56 25 -56 56z" fill="currentColor"/>
<path transform="translate(0.0000, 5.2279) scale(0.0040, -0.0040)" d="M0 0c0 31 25 56 56 56s56 -25 56 -56s-25 -56 -56 -56s-56 25 -56 56z" fill="currentColor"/>
<path transform="translate(15.4000, 4.7279) scale(0.0040, -0.0040)" d="M72 -250l117 326c-34 -12 -69 -22 -105 -22c-46 0 -87 33 -87 79c0 40 33 72 73 72c25 0 48 -15 56 -39c10 -28 6 -59 35 -59c16 0 54 48 61 63c6 12 23 12 28 0l-123 -420c-8 -7 -17 -10 -27 -10s-20 3 -28 10z" fill="currentColor"/>
<path transform="translate(10.8500, 4.7279) scale(0.0040, -0.0040)" d="M-23 -116c0 28 11 42 40 42c33 0 78 -13 119 -31l-132 158c-7 9 -10 17 -10 25c0 34 50 66 87 99c25 22 37 52 37 83c0 24 -8 49 -25 69l-35 42c-3 3 -4 7 -4 10c0 9 9 15 17 15c4 0 8 -1 11 -5l151 -180c7 -9 10 -17 10 -25c0 -34 -50 -66 -87 -99
c-25 -22 -37 -52 -37 -83c0 -24 7 -49 24 -69l84 -99c3 -3 4 -7 4 -10c0 -9 -8 -16 -16 -16c-4 0 -9 2 -12 6c-18 21 -63 38 -97 38c-41 0 -53 -26 -53 -67c0 -35 11 -74 28 -94c5 -6 0 -13 -6 -13c-2 0 -4 0 -6 2c-45 54 -92 148 -92 202z" fill="currentColor"/>
<path transform="translate(6.3000, 4.7279) scale(0.0040, -0.0040)" d="M-23 -116c0 28 11 42 40 42c33 0 78 -13 119 -31l-132 158c-7 9 -10 17 -10 25c0 34 50 66 87 99c25 22 37 52 37 83c0 24 -8 49 -25 69l-35 42c-3 3 -4 7 -4 10c0 9 9 15 17 15c4 0 8 -1 11 -5l151 -180c7 -9 10 -17 10 -25c0 -34 -50 -66 -87 -99
c-25 -22 -37 -52 -37 -83c0 -24 7 -49 24 -69l84 -99c3 -3 4 -7 4 -10c0 -9 -8 -16 -16 -16c-4 0 -9 2 -12 6c-18 21 -63 38 -97 38c-41 0 -53 -26 -53 -67c0 -35 11 -74 28 -94c5 -6 0 -13 -6 -13c-2 0 -4 0 -6 2c-45 54 -92 148 -92 202z" fill="currentColor"/>
<path transform="translate(27.7691, 4.7279) scale(0.0040, -0.0040)" d="M72 -250l117 326c-34 -12 -69 -22 -105 -22c-46 0 -87 33 -87 79c0 40 33 72 73 72c25 0 48 -15 56 -39c10 -28 6 -59 35 -59c16 0 54 48 61 63c6 12 23 12 28 0l-123 -420c-8 -7 -17 -10 -27 -10s-20 3 -28 10z" fill="currentColor"/>
<path transform="translate(25.3691, 4.2679) scale(0.0040, -0.0040)" d="M0 0c0 -197 207 -336 207 -533c0 -71 -15 -141 -41 -207c-5 -8 -13 -12 -20 -12c-13 0 -26 11 -23 27c26 61 42 126 42 192c0 103 -94 208 -165 283h-16v250h16z" fill="currentColor"/>
<rect transform="translate(25.3041, 4.7279)" x="-0.0650" y="-0.5000" width="0.1300" height="3.3139" ry="0.0400" fill="currentColor"/>
<path transform="translate(24.0649, 7.7279) scale(0.0040, -0.0040)" d="M218 136c55 0 108 -28 108 -89c0 -71 -55 -121 -102 -149c-35 -21 -75 -34 -116 -34c-55 0 -108 28 -108 89c0 71 55 121 102 149c35 21 75 34 116 34z" fill="currentColor"/>
<path transform="translate(22.7366, 4.2679) scale(0.0040, -0.0040)" d="M0 0c0 -177 201 -293 201 -470c0 -33 -9 -65 -23 -95c18 -37 29 -75 29 -117c0 -63 -15 -125 -41 -183c-5 -8 -13 -12 -20 -12c-13 0 -26 11 -23 27c26 52 42 110 42 168c0 97 -94 190 -165 257v-75h-16v500h16zM151 -517c5 15 8 31 8 47c0 96 -91 190 -159 257
c0 -118 90 -206 151 -304z" fill="currentColor"/>
<rect transform="translate(22.6716, 4.7279)" x="-0.0650" y="-0.5000" width="0.1300" height="3.3139" ry="0.0400" fill="currentColor"/>
<path transform="translate(21.4324, 7.7279) scale(0.0040, -0.0040)" d="M218 136c55 0 108 -28 108 -89c0 -71 -55 -121 -102 -149c-35 -21 -75 -34 -116 -34c-55 0 -108 28 -108 89c0 71 55 121 102 149c35 21 75 34 116 34z" fill="currentColor"/>
<rect transform="translate(20.0392, 4.7279)" x="-0.0650" y="-0.5000" width="0.1300" height="3.3139" ry="0.0400" fill="currentColor"/>
<path transform="translate(18.8000, 7.7279) scale(0.0040, -0.0040)" d="M218 136c55 0 108 -28 108 -89c0 -71 -55 -121 -102 -149c-35 -21 -75 -34 -116 -34c-55 0 -108 28 -108 89c0 71 55 121 102 149c35 21 75 34 116 34z" fill="currentColor"/>
<path transform="translate(1.7500, 4.7279) scale(0.0040, -0.0040)" d="M-23 -116c0 28 11 42 40 42c33 0 78 -13 119 -31l-132 158c-7 9 -10 17 -10 25c0 34 50 66 87 99c25 22 37 52 37 83c0 24 -8 49 -25 69l-35 42c-3 3 -4 7 -4 10c0 9 9 15 17 15c4 0 8 -1 11 -5l151 -180c7 -9 10 -17 10 -25c0 -34 -50 -66 -87 -99
c-25 -22 -37 -52 -37 -83c0 -24 7 -49 24 -69l84 -99c3 -3 4 -7 4 -10c0 -9 -8 -16 -16 -16c-4 0 -9 2 -12 6c-18 21 -63 38 -97 38c-41 0 -53 -26 -53 -67c0 -35 11 -74 28 -94c5 -6 0 -13 -6 -13c-2 0 -4 0 -6 2c-45 54 -92 148 -92 202z" fill="currentColor"/>
<path transform="translate(31.1691, 4.7279) scale(0.0040, -0.0040)" d="M-23 -116c0 28 11 42 40 42c33 0 78 -13 119 -31l-132 158c-7 9 -10 17 -10 25c0 34 50 66 87 99c25 22 37 52 37 83c0 24 -8 49 -25 69l-35 42c-3 3 -4 7 -4 10c0 9 9 15 17 15c4 0 8 -1 11 -5l151 -180c7 -9 10 -17 10 -25c0 -34 -50 -66 -87 -99
c-25 -22 -37 -52 -37 -83c0 -24 7 -49 24 -69l84 -99c3 -3 4 -7 4 -10c0 -9 -8 -16 -16 -16c-4 0 -9 2 -12 6c-18 21 -63 38 -97 38c-41 0 -53 -26 -53 -67c0 -35 11 -74 28 -94c5 -6 0 -13 -6 -13c-2 0 -4 0 -6 2c-45 54 -92 148 -92 202z" fill="currentColor"/>
<text transform="translate(-0.8164, 1.8437)" font-family="serif" font-size="2.7719" text-anchor="start" fill="currentColor">
<tspan>
7.</tspan>
</text>
<path transform="translate(44.8191, 4.7279) scale(0.0040, -0.0040)" d="M-23 -116c0 28 11 42 40 42c33 0 78 -13 119 -31l-132 158c-7 9 -10 17 -10 25c0 34 50 66 87 99c25 22 37 52 37 83c0 24 -8 49 -25 69l-35 42c-3 3 -4 7 -4 10c0 9 9 15 17 15c4 0 8 -1 11 -5l151 -180c7 -9 10 -17 10 -25c0 -34 -50 -66 -87 -99
c-25 -22 -37 -52 -37 -83c0 -24 7 -49 24 -69l84 -99c3 -3 4 -7 4 -10c0 -9 -8 -16 -16 -16c-4 0 -9 2 -12 6c-18 21 -63 38 -97 38c-41 0 -53 -26 -53 -67c0 -35 11 -74 28 -94c5 -6 0 -13 -6 -13c-2 0 -4 0 -6 2c-45 54 -92 148 -92 202z" fill="currentColor"/>
<path transform="translate(40.2691, 4.7279) scale(0.0040, -0.0040)" d="M-23 -116c0 28 11 42 40 42c33 0 78 -13 119 -31l-132 158c-7 9 -10 17 -10 25c0 34 50 66 87 99c25 22 37 52 37 83c0 24 -8 49 -25 69l-35 42c-3 3 -4 7 -4 10c0 9 9 15 17 15c4 0 8 -1 11 -5l151 -180c7 -9 10 -17 10 -25c0 -34 -50 -66 -87 -99
c-25 -22 -37 -52 -37 -83c0 -24 7 -49 24 -69l84 -99c3 -3 4 -7 4 -10c0 -9 -8 -16 -16 -16c-4 0 -9 2 -12 6c-18 21 -63 38 -97 38c-41 0 -53 -26 -53 -67c0 -35 11 -74 28 -94c5 -6 0 -13 -6 -13c-2 0 -4 0 -6 2c-45 54 -92 148 -92 202z" fill="currentColor"/>
<path transform="translate(20.1042, 4.2679) scale(0.0040, -0.0040)" d="M0 0c0 -177 201 -293 201 -470c0 -33 -9 -65 -23 -95c18 -37 29 -75 29 -117c0 -63 -15 -125 -41 -183c-5 -8 -13 -12 -20 -12c-13 0 -26 11 -23 27c26 52 42 110 42 168c0 97 -94 190 -165 257v-75h-16v500h16zM151 -517c5 15 8 31 8 47c0 96 -91 190 -159 257
c0 -118 90 -206 151 -304z" fill="currentColor"/>
<path transform="translate(35.7191, 4.7279) scale(0.0040, -0.0040)" d="M-23 -116c0 28 11 42 40 42c33 0 78 -13 119 -31l-132 158c-7 9 -10 17 -10 25c0 34 50 66 87 99c25 22 37 52 37 83c0 24 -8 49 -25 69l-35 42c-3 3 -4 7 -4 10c0 9 9 15 17 15c4 0 8 -1 11 -5l151 -180c7 -9 10 -17 10 -25c0 -34 -50 -66 -87 -99
c-25 -22 -37 -52 -37 -83c0 -24 7 -49 24 -69l84 -99c3 -3 4 -7 4 -10c0 -9 -8 -16 -16 -16c-4 0 -9 2 -12 6c-18 21 -63 38 -97 38c-41 0 -53 -26 -53 -67c0 -35 11 -74 28 -94c5 -6 0 -13 -6 -13c-2 0 -4 0 -6 2c-45 54 -92 148 -92 202z" fill="currentColor"/>
</svg>
