<svg xmlns="http://www.w3.org/2000/svg" xmlns:xlink="http://www.w3.org/1999/xlink" version="1.2" width="210.66mm" height="14.64mm" viewBox="-1.5163 0.0280 119.8798 8.3333">
<line transform="translate(0.0000, 7.0280)" stroke-linejoin="round" stroke-linecap="round" stroke-width="0.1000" stroke="currentColor" x1="0.0500" y1="-0.0000" x2="118.3135" y2="-0.0000"/>
<line transform="translate(0.0000, 6.0280)" stroke-linejoin="round" stroke-linecap="round" stroke-width="0.1000" stroke="currentColor" x1="0.0500" y1="-0.0000" x2="118.3135" y2="-0.0000"/>
<line transform="translate(0.0000, 5.0280)" stroke-linejoin="round" stroke-linecap="round" stroke-width="0.1000" stroke="currentColor" x1="0.0500" y1="-0.0000" x2="118.3135" y2="-0.0000"/>
<line transform="translate(0.0000, 4.0280)" stroke-linejoin="round" stroke-linecap="round" stroke-width="0.1000" stroke="currentColor" x1="0.0500" y1="-0.0000" x2="118.3135" y2="-0.0000"/>
<line transform="translate(0.0000, 3.0280)" stroke-linejoin="round" stroke-linecap="round" stroke-width="0.1000" stroke="currentColor" x1="0.0500" y1="-0.0000" x2="118.3135" y2="-0.0000"/>
<rect transform="translate(0.0000, 2.0280)" x="63.3536" y="-0.1000" width="1.9563" height="0.2000" ry="0.1000" fill="currentColor"/>
<rect transform="translate(0.0000, 2.0280)" x="60.1691" y="-0.1000" width="1.8199" height="0.2000" ry="0.1000" fill="currentColor"/>
<rect transform="translate(0.0000, 2.0280)" x="50.0702" y="-0.1000" width="1.9563" height="0.2000" ry="0.1000" fill="currentColor"/>
<path transform="translate(117.5135, 4.5280) scale(0.0040, -0.0040)" d="M0 0c0 31 25 56 56 56s56 -25 56 -56s-25 -56 -56 -56s-56 25 -56 56z" fill="currentColor"/>
<path transform="translate(117.5135, 5.5280) scale(0.0040, -0.0040)" d="M0 0c0 31 25 56 56 56s56 -25 56 -56s-25 -56 -56 -56s-56 25 -56 56z" fill="currentColor"/>
<path transform="translate(0.0000, 4.5280) scale(0.0040, -0.0040)" d="M0 0c0 31 25 56 56 56s56 -25 56 -56s-25 -56 -56 -56s-56 25 -56 56z" fill="currentColor"/>
<path transform="translate(0.0000, 5.5280) scale(0.0040, -0.0040)" d="M0 0c0 31 25 56 56 56s56 -25 56 -56s-25 -56 -56 -56s-56 25 -56 56z" fill="currentColor"/>
<rect transform="translate(23.8019, 5.0280)" x="-0.0650" y="-3.0148" width="0.1300" height="3.8287" ry="0.0400" fill="currentColor"/>
<path transform="translate(17.9377, 6.0280) scale(0.0040, -0.0040)" d="M218 136c55 0 108 -28 108 -89c0 -71 -55 -121 -102 -149c-35 -21 -75 -34 -116 -34c-55 0 -108 28 -108 89c0 71 55 121 102 149c35 21 75 34 116 34z" fill="currentColor"/>
<path transform="translate(22.5627, 6.0280) scale(0.0040, -0.0040)" d="M218 136c55 0 108 -28 108 -89c0 -71 -55 -121 -102 -149c-35 -21 -75 -34 -116 -34c-55 0 -108 28 -108 89c0 71 55 121 102 149c35 21 75 34 116 34z" fill="currentColor"/>
<rect transform="translate(21.7394, 5.0280)" x="-0.0650" y="-3.4852" width="0.1300" height="3.2991" ry="0.0400" fill="currentColor"/>
<path transform="translate(20.5002, 5.0280) scale(0.0040, -0.0040)" d="M218 136c55 0 108 -28 108 -89c0 -71 -55 -121 -102 -149c-35 -21 -75 -34 -116 -34c-55 0 -108 28 -108 89c0 71 55 121 102 149c35 21 75 34 116 34z" fill="currentColor"/>
<rect transform="translate(19.1769, 5.0280)" x="-0.0650" y="-3.0000" width="0.1300" height="3.8139" ry="0.0400" fill="currentColor"/>
<path transform="translate(24.8752, 5.0280) scale(0.0040, -0.0040)" d="M72 -250l117 326c-34 -12 -69 -22 -105 -22c-46 0 -87 33 -87 79c0 40 33 72 73 72c25 0 48 -15 56 -39c10 -28 6 -59 35 -59c16 0 54 48 61 63c6 12 23 12 28 0l-123 -420c-8 -7 -17 -10 -27 -10s-20 3 -28 10z" fill="currentColor"/>
<path transform="translate(27.8919, 5.0280) scale(0.0040, -0.0040)" d="M-23 -116c0 28 11 42 40 42c33 0 78 -13 119 -31l-132 158c-7 9 -10 17 -10 25c0 34 50 66 87 99c25 22 37 52 37 83c0 24 -8 49 -25 69l-35 42c-3 3 -4 7 -4 10c0 9 9 15 17 15c4 0 8 -1 11 -5l151 -180c7 -9 10 -17 10 -25c0 -34 -50 -66 -87 -99
c-25 -22 -37 -52 -37 -83c0 -24 7 -49 24 -69l84 -99c3 -3 4 -7 4 -10c0 -9 -8 -16 -16 -16c-4 0 -9 2 -12 6c-18 21 -63 38 -97 38c-41 0 -53 -26 -53 -67c0 -35 11 -74 28 -94c5 -6 0 -13 -6 -13c-2 0 -4 0 -6 2c-45 54 -92 148 -92 202z" fill="currentColor"/>
<path transform="translate(31.8668, 5.0280) scale(0.0040, -0.0040)" d="M-23 -116c0 28 11 42 40 42c33 0 78 -13 119 -31l-132 158c-7 9 -10 17 -10 25c0 34 50 66 87 99c25 22 37 52 37 83c0 24 -8 49 -25 69l-35 42c-3 3 -4 7 -4 10c0 9 9 15 17 15c4 0 8 -1 11 -5l151 -180c7 -9 10 -17 10 -25c0 -34 -50 -66 -87 -99
c-25 -22 -37 -52 -37 -83c0 -24 7 -49 24 -69l84 -99c3 -3 4 -7 4 -10c0 -9 -8 -16 -16 -16c-4 0 -9 2 -12 6c-18 21 -63 38 -97 38c-41 0 -53 -26 -53 -67c0 -35 11 -74 28 -94c5 -6 0 -13 -6 -13c-2 0 -4 0 -6 2c-45 54 -92 148 -92 202z" fill="currentColor"/>
<path transform="translate(6.6250, 5.0280) scale(0.0040, -0.0040)" d="M218 136c55 0 108 -28 108 -89c0 -71 -55 -121 -102 -149c-35 -21 -75 -34 -116 -34c-55 0 -108 28 -108 89c0 71 55 121 102 149c35 21 75 34 116 34z" fill="currentColor"/>
<polygon transform="translate(2.9242, 2.2180)" stroke-linejoin="round" stroke-linecap="round" stroke-width="0.0800" fill="currentColor" stroke="currentColor" points="7.0276 -0.3900 7.0276 0.0100 0.0400 0.2000 0.0400 -0.2000"/>
<polygon transform="translate(2.9242, 3.0280)" stroke-linejoin="round" stroke-linecap="round" stroke-width="0.0800" fill="currentColor" stroke="currentColor" points="7.0276 -0.3900 7.0276 0.0100 0.0400 0.2000 0.0400 -0.2000"/>
<rect transform="translate(7.8643, 5.0280)" x="-0.0650" y="-2.9428" width="0.1300" height="2.7567" ry="0.0400" fill="currentColor"/>
<path transform="translate(8.6876, 6.0280) scale(0.0040, -0.0040)" d="M218 136c55 0 108 -28 108 -89c0 -71 -55 -121 -102 -149c-35 -21 -75 -34 -116 -34c-55 0 -108 28 -108 89c0 71 55 121 102 149c35 21 75 34 116 34z" fill="currentColor"/>
<rect transform="translate(9.9268, 5.0280)" x="-0.0650" y="-2.9983" width="0.1300" height="3.8121" ry="0.0400" fill="currentColor"/>
<path transform="translate(11.2501, 5.0280) scale(0.0040, -0.0040)" d="M218 136c55 0 108 -28 108 -89c0 -71 -55 -121 -102 -149c-35 -21 -75 -34 -116 -34c-55 0 -108 28 -108 89c0 71 55 121 102 149c35 21 75 34 116 34z" fill="currentColor"/>
<rect transform="translate(12.4893, 5.0280)" x="-0.0650" y="-3.0000" width="0.1300" height="2.8139" ry="0.0400" fill="currentColor"/>
<path transform="translate(13.3126, 6.0280) scale(0.0040, -0.0040)" d="M218 136c55 0 108 -28 108 -89c0 -71 -55 -121 -102 -149c-35 -21 -75 -34 -116 -34c-55 0 -108 28 -108 89c0 71 55 121 102 149c35 21 75 34 116 34z" fill="currentColor"/>
<rect transform="translate(14.5518, 5.0280)" x="-0.0650" y="-3.0000" width="0.1300" height="3.8139" ry="0.0400" fill="currentColor"/>
<path transform="translate(15.8751, 5.0280) scale(0.0040, -0.0040)" d="M218 136c55 0 108 -28 108 -89c0 -71 -55 -121 -102 -149c-35 -21 -75 -34 -116 -34c-55 0 -108 28 -108 89c0 71 55 121 102 149c35 21 75 34 116 34z" fill="currentColor"/>
<rect transform="translate(17.1144, 5.0280)" x="-0.0650" y="-3.0000" width="0.1300" height="2.8139" ry="0.0400" fill="currentColor"/>
<path transform="translate(63.6796, 2.0280) scale(0.0040, -0.0040)" d="M218 136c55 0 108 -28 108 -89c0 -71 -55 -121 -102 -149c-35 -21 -75 -34 -116 -34c-55 0 -108 28 -108 89c0 71 55 121 102 149c35 21 75 34 116 34z" fill="currentColor"/>
<path transform="translate(57.0379, 2.5280) scale(0.0040, -0.0040)" d="M218 136c55 0 108 -28 108 -89c0 -71 -55 -121 -102 -149c-35 -21 -75 -34 -116 -34c-55 0 -108 28 -108 89c0 71 55 121 102 149c35 21 75 34 116 34z" fill="currentColor"/>
<rect transform="translate(57.1029, 5.0280)" x="-0.0650" y="-2.3139" width="0.1300" height="2.5003" ry="0.0400" fill="currentColor"/>
<path transform="translate(60.3588, 1.5280) scale(0.0040, -0.0040)" d="M218 136c55 0 108 -28 108 -89c0 -71 -55 -121 -102 -149c-35 -21 -75 -34 -116 -34c-55 0 -108 28 -108 89c0 71 55 121 102 149c35 21 75 34 116 34z" fill="currentColor"/>
<rect transform="translate(60.4238, 5.0280)" x="-0.0650" y="-3.3139" width="0.1300" height="3.3175" ry="0.0400" fill="currentColor"/>
<path transform="translate(59.3128, 1.5280) scale(0.0040, -0.0040)" d="M-8 375c8 4 17 7 26 7s16 -3 24 -7l-2 -183l106 20h3c10 0 18 -7 18 -17l7 -570c-8 -4 -16 -7 -25 -7s-17 3 -25 7l3 183l-106 -20h-3c-10 0 -18 7 -18 17zM131 112l-92 -17l-3 -207l92 17z" fill="currentColor"/>
<path transform="translate(65.4338, 1.5280) scale(0.0040, -0.0040)" d="M0 0c0 31 25 56 56 56s56 -25 56 -56s-25 -56 -56 -56s-56 25 -56 56z" fill="currentColor"/>
<rect transform="translate(63.7446, 5.0280)" x="-0.0650" y="-2.8139" width="0.1300" height="3.3139" ry="0.0400" fill="currentColor"/>
<path transform="translate(101.7785, 5.0280)" stroke-width="0.0800" stroke-linejoin="round" stroke-linecap="round" stroke="currentColor" fill="currentColor" d="M1.5042 -2.0000C1.9178 -2.5069 2.7072 -2.5069 3.1208 -2.0000L3.1208 -2.0000C2.7072 -2.3869 1.9178 -2.3869 1.5042 -2.0000z"/>
<path transform="translate(81.4907, 5.0280)" stroke-width="0.0800" stroke-linejoin="round" stroke-linecap="round" stroke="currentColor" fill="currentColor" d="M0.8521 -2.7500C1.4980 -3.4447 3.1636 -3.4447 3.8095 -2.7500L3.8095 -2.7500C3.1636 -3.3247 1.4980 -3.3247 0.8521 -2.7500z"/>
<polygon transform="translate(78.1699, 5.8380)" stroke-linejoin="round" stroke-linecap="round" stroke-width="0.0800" fill="currentColor" stroke="currentColor" points="3.4108 -0.0100 3.4108 0.3900 0.0400 0.2000 0.0400 -0.2000"/>
<polygon transform="translate(57.0379, 5.2180)" stroke-linejoin="round" stroke-linecap="round" stroke-width="0.0800" fill="currentColor" stroke="currentColor" points="3.4108 -0.3900 3.4108 0.0100 0.0400 0.2000 0.0400 -0.2000"/>
<path transform="translate(53.7171, 5.0280)" stroke-width="0.0800" stroke-linejoin="round" stroke-linecap="round" stroke="currentColor" fill="currentColor" d="M1.5042 -3.0000C1.9178 -3.5069 2.7072 -3.5069 3.1208 -3.0000L3.1208 -3.0000C2.7072 -3.3869 1.9178 -3.3869 1.5042 -3.0000z"/>
<polygon transform="translate(50.3963, 5.0280)" stroke-linejoin="round" stroke-linecap="round" stroke-width="0.0800" fill="currentColor" stroke="currentColor" points="3.4108 -0.0100 3.4108 0.3900 0.0400 0.2000 0.0400 -0.2000"/>
<polygon transform="translate(21.6744, 1.5280)" stroke-linejoin="round" stroke-linecap="round" stroke-width="0.0800" fill="currentColor" stroke="currentColor" points="2.1525 0.3000 2.1525 0.7000 0.0400 0.2000 0.0400 -0.2000"/>
<polygon transform="translate(21.6744, 2.3380)" stroke-linejoin="round" stroke-linecap="round" stroke-width="0.0800" fill="currentColor" stroke="currentColor" points="2.1525 0.3000 2.1525 0.7000 0.0400 0.2000 0.0400 -0.2000"/>
<polygon transform="translate(12.4243, 2.0280)" stroke-linejoin="round" stroke-linecap="round" stroke-width="0.0800" fill="currentColor" stroke="currentColor" points="6.7776 -0.2000 6.7776 0.2000 0.0400 0.2000 0.0400 -0.2000"/>
<polygon transform="translate(12.4243, 2.8380)" stroke-linejoin="round" stroke-linecap="round" stroke-width="0.0800" fill="currentColor" stroke="currentColor" points="6.7776 -0.2000 6.7776 0.2000 0.0400 0.2000 0.0400 -0.2000"/>
<rect transform="translate(44.4608, 5.0280)" x="-0.0650" y="-2.2410" width="0.1300" height="3.2410" ry="0.0400" fill="currentColor"/>
<path transform="translate(35.8417, 5.0280) scale(0.0040, -0.0040)" d="M-23 -116c0 28 11 42 40 42c33 0 78 -13 119 -31l-132 158c-7 9 -10 17 -10 25c0 34 50 66 87 99c25 22 37 52 37 83c0 24 -8 49 -25 69l-35 42c-3 3 -4 7 -4 10c0 9 9 15 17 15c4 0 8 -1 11 -5l151 -180c7 -9 10 -17 10 -25c0 -34 -50 -66 -87 -99
c-25 -22 -37 -52 -37 -83c0 -24 7 -49 24 -69l84 -99c3 -3 4 -7 4 -10c0 -9 -8 -16 -16 -16c-4 0 -9 2 -12 6c-18 21 -63 38 -97 38c-41 0 -53 -26 -53 -67c0 -35 11 -74 28 -94c5 -6 0 -13 -6 -13c-2 0 -4 0 -6 2c-45 54 -92 148 -92 202z" fill="currentColor"/>
<path transform="translate(39.8167, 5.0280) scale(0.0040, -0.0040)" d="M218 136c55 0 108 -28 108 -89c0 -71 -55 -121 -102 -149c-35 -21 -75 -34 -116 -34c-55 0 -108 28 -108 89c0 71 55 121 102 149c35 21 75 34 116 34z" fill="currentColor"/>
<rect transform="translate(39.8817, 5.0280)" x="-0.0650" y="0.1861" width="0.1300" height="3.1472" ry="0.0400" fill="currentColor"/>
<path transform="translate(38.6667, 5.0280) scale(0.0040, -0.0040)" d="M27 41l-1 -66v-11c0 -22 1 -44 4 -66c45 38 93 80 93 139c0 33 -14 67 -43 67c-31 0 -52 -30 -53 -63zM-15 -138l-12 595c8 5 18 8 27 8s19 -3 27 -8l-7 -345c25 21 58 34 91 34c52 0 89 -48 89 -102c0 -80 -86 -117 -147 -169c-15 -13 -24 -38 -45 -38
c-13 0 -23 11 -23 25z" fill="currentColor"/>
<path transform="translate(44.3958, 2.5280) scale(0.0040, -0.0040)" d="M314 65c0 24 -21 41 -42 41c-4 0 -8 0 -12 -1c-31 -9 -78 -40 -115 -64s-84 -53 -104 -78c-7 -8 -10 -18 -10 -28c0 -24 21 -41 42 -41c4 0 8 0 12 1c31 9 77 40 114 64s84 53 104 78c7 8 11 18 11 28zM262 136c46 0 82 -21 82 -71c0 -19 -4 -39 -10 -57
c-12 -37 -32 -72 -64 -94c-53 -36 -113 -50 -187 -50c-46 0 -83 21 -83 71c0 19 5 39 11 57c12 37 31 72 63 94c53 36 114 50 188 50z" fill="currentColor"/>
<path transform="translate(46.2232, 2.5280) scale(0.0040, -0.0040)" d="M0 0c0 31 25 56 56 56s56 -25 56 -56s-25 -56 -56 -56s-56 25 -56 56z" fill="currentColor"/>
<path transform="translate(50.3963, 2.0280) scale(0.0040, -0.0040)" d="M218 136c55 0 108 -28 108 -89c0 -71 -55 -121 -102 -149c-35 -21 -75 -34 -116 -34c-55 0 -108 28 -108 89c0 71 55 121 102 149c35 21 75 34 116 34z" fill="currentColor"/>
<rect transform="translate(50.4613, 5.0280)" x="-0.0650" y="-2.8139" width="0.1300" height="2.8175" ry="0.0400" fill="currentColor"/>
<path transform="translate(53.7171, 2.5280) scale(0.0040, -0.0040)" d="M218 136c55 0 108 -28 108 -89c0 -71 -55 -121 -102 -149c-35 -21 -75 -34 -116 -34c-55 0 -108 28 -108 89c0 71 55 121 102 149c35 21 75 34 116 34z" fill="currentColor"/>
<rect transform="translate(53.7821, 5.0280)" x="-0.0650" y="-2.3139" width="0.1300" height="2.5003" ry="0.0400" fill="currentColor"/>
<path transform="translate(73.7468, 3.5280) scale(0.0040, -0.0040)" d="M0 0c0 31 25 56 56 56s56 -25 56 -56s-25 -56 -56 -56s-56 25 -56 56z" fill="currentColor"/>
<rect transform="translate(71.9844, 5.0280)" x="-0.0650" y="-1.2410" width="0.1300" height="3.2410" ry="0.0400" fill="currentColor"/>
<path transform="translate(78.1699, 2.5280) scale(0.0040, -0.0040)" d="M218 136c55 0 108 -28 108 -89c0 -71 -55 -121 -102 -149c-35 -21 -75 -34 -116 -34c-55 0 -108 28 -108 89c0 71 55 121 102 149c35 21 75 34 116 34z" fill="currentColor"/>
<rect transform="translate(78.2349, 5.0280)" x="-0.0650" y="-2.3139" width="0.1300" height="3.1275" ry="0.0400" fill="currentColor"/>
<path transform="translate(81.4907, 3.0280) scale(0.0040, -0.0040)" d="M218 136c55 0 108 -28 108 -89c0 -71 -55 -121 -102 -149c-35 -21 -75 -34 -116 -34c-55 0 -108 28 -108 89c0 71 55 121 102 149c35 21 75 34 116 34z" fill="currentColor"/>
<rect transform="translate(81.5557, 5.0280)" x="-0.0650" y="-1.8139" width="0.1300" height="2.8103" ry="0.0400" fill="currentColor"/>
<path transform="translate(71.9194, 3.5280) scale(0.0040, -0.0040)" d="M314 65c0 24 -21 41 -42 41c-4 0 -8 0 -12 -1c-31 -9 -78 -40 -115 -64s-84 -53 -104 -78c-7 -8 -10 -18 -10 -28c0 -24 21 -41 42 -41c4 0 8 0 12 1c31 9 77 40 114 64s84 53 104 78c7 8 11 18 11 28zM262 136c46 0 82 -21 82 -71c0 -19 -4 -39 -10 -57
c-12 -37 -32 -72 -64 -94c-53 -36 -113 -50 -187 -50c-46 0 -83 21 -83 71c0 19 5 39 11 57c12 37 31 72 63 94c53 36 114 50 188 50z" fill="currentColor"/>
<path transform="translate(80.0407, 3.0280) scale(0.0040, -0.0040)" d="M216 -312c0 -10 -8 -19 -18 -19s-19 9 -19 19v145l-83 -31v-158c0 -10 -9 -19 -19 -19s-18 9 -18 19v145l-32 -12c-2 -1 -5 -1 -7 -1c-11 0 -20 9 -20 20v60c0 8 5 16 13 19l46 16v160l-32 -11c-2 -1 -5 -1 -7 -1c-11 0 -20 9 -20 20v60c0 8 5 15 13 18l46 17v158
c0 10 8 19 18 19s19 -9 19 -19v-145l83 31v158c0 10 9 19 19 19s18 -9 18 -19v-145l32 12c2 1 5 1 7 1c11 0 20 -9 20 -20v-60c0 -8 -5 -16 -13 -19l-46 -16v-160l32 11c2 1 5 1 7 1c11 0 20 -9 20 -20v-60c0 -8 -5 -15 -13 -18l-46 -17v-158zM96 65v-160l83 30v160z" fill="currentColor"/>
<path transform="translate(84.8115, 3.0280) scale(0.0040, -0.0040)" d="M314 65c0 24 -21 41 -42 41c-4 0 -8 0 -12 -1c-31 -9 -78 -40 -115 -64s-84 -53 -104 -78c-7 -8 -10 -18 -10 -28c0 -24 21 -41 42 -41c4 0 8 0 12 1c31 9 77 40 114 64s84 53 104 78c7 8 11 18 11 28zM262 136c46 0 82 -21 82 -71c0 -19 -4 -39 -10 -57
c-12 -37 -32 -72 -64 -94c-53 -36 -113 -50 -187 -50c-46 0 -83 21 -83 71c0 19 5 39 11 57c12 37 31 72 63 94c53 36 114 50 188 50z" fill="currentColor"/>
<path transform="translate(86.6389, 2.5280) scale(0.0040, -0.0040)" d="M0 0c0 31 25 56 56 56s56 -25 56 -56s-25 -56 -56 -56s-56 25 -56 56z" fill="currentColor"/>
<rect transform="translate(84.8765, 5.0280)" x="-0.0650" y="-1.7410" width="0.1300" height="3.2410" ry="0.0400" fill="currentColor"/>
<path transform="translate(90.8120, 5.0280) scale(0.0040, -0.0040)" d="M-23 -116c0 28 11 42 40 42c33 0 78 -13 119 -31l-132 158c-7 9 -10 17 -10 25c0 34 50 66 87 99c25 22 37 52 37 83c0 24 -8 49 -25 69l-35 42c-3 3 -4 7 -4 10c0 9 9 15 17 15c4 0 8 -1 11 -5l151 -180c7 -9 10 -17 10 -25c0 -34 -50 -66 -87 -99
c-25 -22 -37 -52 -37 -83c0 -24 7 -49 24 -69l84 -99c3 -3 4 -7 4 -10c0 -9 -8 -16 -16 -16c-4 0 -9 2 -12 6c-18 21 -63 38 -97 38c-41 0 -53 -26 -53 -67c0 -35 11 -74 28 -94c5 -6 0 -13 -6 -13c-2 0 -4 0 -6 2c-45 54 -92 148 -92 202z" fill="currentColor"/>
<path transform="translate(1.7500, 6.5280) scale(0.0040, -0.0040)" d="M218 136c55 0 108 -28 108 -89c0 -71 -55 -121 -102 -149c-35 -21 -75 -34 -116 -34c-55 0 -108 28 -108 89c0 71 55 121 102 149c35 21 75 34 116 34z" fill="currentColor"/>
<text transform="translate(-1.5163, 2.1439)" font-family="serif" font-size="2.7719" text-anchor="start" fill="currentColor">
<tspan>
35.</tspan>
</text>
<rect transform="translate(2.9892, 5.0280)" x="-0.0650" y="-2.8117" width="0.1300" height="4.1256" ry="0.0400" fill="currentColor"/>
<path transform="translate(68.5986, 2.5280) scale(0.0040, -0.0040)" d="M218 136c55 0 108 -28 108 -89c0 -71 -55 -121 -102 -149c-35 -21 -75 -34 -116 -34c-55 0 -108 28 -108 89c0 71 55 121 102 149c35 21 75 34 116 34z" fill="currentColor"/>
<rect transform="translate(68.6636, 5.0280)" x="-0.0650" y="-2.3139" width="0.1300" height="3.3139" ry="0.0400" fill="currentColor"/>
<path transform="translate(68.7286, 5.9880) scale(0.0040, -0.0040)" d="M0 0h-16v250h16c97 59 224 148 224 259c0 57 -15 112 -40 163c-3 16 10 27 23 27c7 0 15 -3 20 -11c25 -56 40 -117 40 -179c0 -203 -267 -306 -267 -509z" fill="currentColor"/>
<path transform="translate(105.0993, 3.5280) scale(0.0040, -0.0040)" d="M314 65c0 24 -21 41 -42 41c-4 0 -8 0 -12 -1c-31 -9 -78 -40 -115 -64s-84 -53 -104 -78c-7 -8 -10 -18 -10 -28c0 -24 21 -41 42 -41c4 0 8 0 12 1c31 9 77 40 114 64s84 53 104 78c7 8 11 18 11 28zM262 136c46 0 82 -21 82 -71c0 -19 -4 -39 -10 -57
c-12 -37 -32 -72 -64 -94c-53 -36 -113 -50 -187 -50c-46 0 -83 21 -83 71c0 19 5 39 11 57c12 37 31 72 63 94c53 36 114 50 188 50z" fill="currentColor"/>
<rect transform="translate(105.1643, 5.0280)" x="-0.0650" y="-1.2410" width="0.1300" height="3.2410" ry="0.0400" fill="currentColor"/>
<path transform="translate(101.9085, 6.9880) scale(0.0040, -0.0040)" d="M0 0h-16v250h16c97 59 224 148 224 259c0 57 -15 112 -40 163c-3 16 10 27 23 27c7 0 15 -3 20 -11c25 -56 40 -117 40 -179c0 -203 -267 -306 -267 -509z" fill="currentColor"/>
<path transform="translate(110.5099, 3.0280) scale(0.0040, -0.0040)" d="M213 112c-50 0 -69 -43 -69 -88c0 -77 57 -136 134 -136c50 0 69 43 69 88c0 77 -57 136 -134 136zM491 0c0 -43 -34 -75 -72 -96c-53 -29 -114 -40 -174 -40s-120 11 -173 40c-38 21 -72 53 -72 96s34 75 72 96c53 29 113 40 173 40s121 -11 174 -40
c38 -21 72 -53 72 -96z" fill="currentColor"/>
<path transform="translate(112.9219, 2.5280) scale(0.0040, -0.0040)" d="M0 0c0 31 25 56 56 56s56 -25 56 -56s-25 -56 -56 -56s-56 25 -56 56z" fill="currentColor"/>
<path transform="translate(109.4695, 3.0280) scale(0.0040, -0.0040)" d="M-8 375c8 4 17 7 26 7s16 -3 24 -7l-2 -183l106 20h3c10 0 18 -7 18 -17l7 -570c-8 -4 -16 -7 -25 -7s-17 3 -25 7l3 183l-106 -20h-3c-10 0 -18 7 -18 17zM131 112l-92 -17l-3 -207l92 17z" fill="currentColor"/>
<path transform="translate(98.7618, 5.0280) scale(0.0040, -0.0040)" d="M72 -250l117 326c-34 -12 -69 -22 -105 -22c-46 0 -87 33 -87 79c0 40 33 72 73 72c25 0 48 -15 56 -39c10 -28 6 -59 35 -59c16 0 54 48 61 63c6 12 23 12 28 0l-123 -420c-8 -7 -17 -10 -27 -10s-20 3 -28 10z" fill="currentColor"/>
<path transform="translate(94.7869, 5.0280) scale(0.0040, -0.0040)" d="M-23 -116c0 28 11 42 40 42c33 0 78 -13 119 -31l-132 158c-7 9 -10 17 -10 25c0 34 50 66 87 99c25 22 37 52 37 83c0 24 -8 49 -25 69l-35 42c-3 3 -4 7 -4 10c0 9 9 15 17 15c4 0 8 -1 11 -5l151 -180c7 -9 10 -17 10 -25c0 -34 -50 -66 -87 -99
c-25 -22 -37 -52 -37 -83c0 -24 7 -49 24 -69l84 -99c3 -3 4 -7 4 -10c0 -9 -8 -16 -16 -16c-4 0 -9 2 -12 6c-18 21 -63 38 -97 38c-41 0 -53 -26 -53 -67c0 -35 11 -74 28 -94c5 -6 0 -13 -6 -13c-2 0 -4 0 -6 2c-45 54 -92 148 -92 202z" fill="currentColor"/>
<rect transform="translate(5.3017, 5.0280)" x="-0.0650" y="-2.8739" width="0.1300" height="3.6878" ry="0.0400" fill="currentColor"/>
<path transform="translate(4.0625, 6.0280) scale(0.0040, -0.0040)" d="M218 136c55 0 108 -28 108 -89c0 -71 -55 -121 -102 -149c-35 -21 -75 -34 -116 -34c-55 0 -108 28 -108 89c0 71 55 121 102 149c35 21 75 34 116 34z" fill="currentColor"/>
<path transform="translate(101.7785, 3.5280) scale(0.0040, -0.0040)" d="M218 136c55 0 108 -28 108 -89c0 -71 -55 -121 -102 -149c-35 -21 -75 -34 -116 -34c-55 0 -108 28 -108 89c0 71 55 121 102 149c35 21 75 34 116 34z" fill="currentColor"/>
<rect transform="translate(101.8435, 5.0280)" x="-0.0650" y="-1.3139" width="0.1300" height="3.3139" ry="0.0400" fill="currentColor"/>
</svg>
