<svg xmlns="http://www.w3.org/2000/svg" xmlns:xlink="http://www.w3.org/1999/xlink" version="1.2" width="53.17mm" height="12.24mm" viewBox="-1.5163 0.0000 30.2542 6.9670">
<line transform="translate(0.0000, 6.9170)" stroke-linejoin="round" stroke-linecap="round" stroke-width="0.1000" stroke="currentColor" x1="0.0500" y1="-0.0000" x2="28.6879" y2="-0.0000"/>
<line transform="translate(0.0000, 5.9170)" stroke-linejoin="round" stroke-linecap="round" stroke-width="0.1000" stroke="currentColor" x1="0.0500" y1="-0.0000" x2="28.6879" y2="-0.0000"/>
<line transform="translate(0.0000, 4.9170)" stroke-linejoin="round" stroke-linecap="round" stroke-width="0.1000" stroke="currentColor" x1="0.0500" y1="-0.0000" x2="28.6879" y2="-0.0000"/>
<line transform="translate(0.0000, 3.9170)" stroke-linejoin="round" stroke-linecap="round" stroke-width="0.1000" stroke="currentColor" x1="0.0500" y1="-0.0000" x2="28.6879" y2="-0.0000"/>
<line transform="translate(0.0000, 2.9170)" stroke-linejoin="round" stroke-linecap="round" stroke-width="0.1000" stroke="currentColor" x1="0.0500" y1="-0.0000" x2="28.6879" y2="-0.0000"/>
<path transform="translate(27.8879, 4.4170) scale(0.0040, -0.0040)" d="M0 0c0 31 25 56 56 56s56 -25 56 -56s-25 -56 -56 -56s-56 25 -56 56z" fill="currentColor"/>
<path transform="translate(27.8879, 5.4170) scale(0.0040, -0.0040)" d="M0 0c0 31 25 56 56 56s56 -25 56 -56s-25 -56 -56 -56s-56 25 -56 56z" fill="currentColor"/>
<path transform="translate(0.0000, 4.4170) scale(0.0040, -0.0040)" d="M0 0c0 31 25 56 56 56s56 -25 56 -56s-25 -56 -56 -56s-56 25 -56 56z" fill="currentColor"/>
<path transform="translate(0.0000, 5.4170) scale(0.0040, -0.0040)" d="M0 0c0 31 25 56 56 56s56 -25 56 -56s-25 -56 -56 -56s-56 25 -56 56z" fill="currentColor"/>
<rect transform="translate(9.3276, 4.9170)" x="-0.0650" y="-1.3139" width="0.1300" height="3.1239" ry="0.0400" fill="currentColor"/>
<path transform="translate(9.2626, 3.4170) scale(0.0040, -0.0040)" d="M218 136c55 0 108 -28 108 -89c0 -71 -55 -121 -102 -149c-35 -21 -75 -34 -116 -34c-55 0 -108 28 -108 89c0 71 55 121 102 149c35 21 75 34 116 34z" fill="currentColor"/>
<rect transform="translate(6.8234, 4.9170)" x="-0.0650" y="-1.8139" width="0.1300" height="3.6239" ry="0.0400" fill="currentColor"/>
<path transform="translate(6.7584, 2.9170) scale(0.0040, -0.0040)" d="M218 136c55 0 108 -28 108 -89c0 -71 -55 -121 -102 -149c-35 -21 -75 -34 -116 -34c-55 0 -108 28 -108 89c0 71 55 121 102 149c35 21 75 34 116 34z" fill="currentColor"/>
<rect transform="translate(4.3192, 4.9170)" x="-0.0650" y="-1.3139" width="0.1300" height="3.1239" ry="0.0400" fill="currentColor"/>
<path transform="translate(4.2542, 3.4170) scale(0.0040, -0.0040)" d="M218 136c55 0 108 -28 108 -89c0 -71 -55 -121 -102 -149c-35 -21 -75 -34 -116 -34c-55 0 -108 28 -108 89c0 71 55 121 102 149c35 21 75 34 116 34z" fill="currentColor"/>
<polygon transform="translate(1.7500, 5.9170)" stroke-linejoin="round" stroke-linecap="round" stroke-width="0.0800" fill="currentColor" stroke="currentColor" points="7.6026 -0.2000 7.6026 0.2000 0.0400 0.2000 0.0400 -0.2000"/>
<polygon transform="translate(1.7500, 6.7270)" stroke-linejoin="round" stroke-linecap="round" stroke-width="0.0800" fill="currentColor" stroke="currentColor" points="7.6026 -0.2000 7.6026 0.2000 0.0400 0.2000 0.0400 -0.2000"/>
<polygon transform="translate(11.7668, 6.7270)" stroke-linejoin="round" stroke-linecap="round" stroke-width="0.0800" fill="currentColor" stroke="currentColor" points="3.7942 -0.2000 3.7942 0.2000 0.0400 0.2000 0.0400 -0.2000"/>
<polygon transform="translate(22.8795, 5.9170)" stroke-linejoin="round" stroke-linecap="round" stroke-width="0.0800" fill="currentColor" stroke="currentColor" points="2.5942 -0.2000 2.5942 0.2000 0.0400 0.2000 0.0400 -0.2000"/>
<polygon transform="translate(19.1753, 6.7270)" stroke-linejoin="round" stroke-linecap="round" stroke-width="0.0800" fill="currentColor" stroke="currentColor" points="6.2984 -0.2000 6.2984 0.2000 0.0400 0.2000 0.0400 -0.2000"/>
<rect transform="translate(19.2403, 4.9170)" x="-0.0650" y="-1.3139" width="0.1300" height="3.1239" ry="0.0400" fill="currentColor"/>
<path transform="translate(19.1753, 3.4170) scale(0.0040, -0.0040)" d="M218 136c55 0 108 -28 108 -89c0 -71 -55 -121 -102 -149c-35 -21 -75 -34 -116 -34c-55 0 -108 28 -108 89c0 71 55 121 102 149c35 21 75 34 116 34z" fill="currentColor"/>
<rect transform="translate(15.5361, 4.9170)" x="-0.0650" y="-1.3139" width="0.1300" height="3.1239" ry="0.0400" fill="currentColor"/>
<path transform="translate(15.4711, 3.4170) scale(0.0040, -0.0040)" d="M218 136c55 0 108 -28 108 -89c0 -71 -55 -121 -102 -149c-35 -21 -75 -34 -116 -34c-55 0 -108 28 -108 89c0 71 55 121 102 149c35 21 75 34 116 34z" fill="currentColor"/>
<rect transform="translate(11.8318, 4.9170)" x="-0.0650" y="-1.3139" width="0.1300" height="3.1239" ry="0.0400" fill="currentColor"/>
<path transform="translate(11.7668, 3.4170) scale(0.0040, -0.0040)" d="M218 136c55 0 108 -28 108 -89c0 -71 -55 -121 -102 -149c-35 -21 -75 -34 -116 -34c-55 0 -108 28 -108 89c0 71 55 121 102 149c35 21 75 34 116 34z" fill="currentColor"/>
<path transform="translate(22.8795, 2.9170) scale(0.0040, -0.0040)" d="M218 136c55 0 108 -28 108 -89c0 -71 -55 -121 -102 -149c-35 -21 -75 -34 -116 -34c-55 0 -108 28 -108 89c0 71 55 121 102 149c35 21 75 34 116 34z" fill="currentColor"/>
<rect transform="translate(1.8150, 4.9170)" x="-0.0650" y="-1.8139" width="0.1300" height="3.6239" ry="0.0400" fill="currentColor"/>
<text transform="translate(-1.5163, 1.8779)" font-family="serif" font-size="2.7719" text-anchor="start" fill="currentColor">
<tspan>
43.</tspan>
</text>
<path transform="translate(1.7500, 2.9170) scale(0.0040, -0.0040)" d="M218 136c55 0 108 -28 108 -89c0 -71 -55 -121 -102 -149c-35 -21 -75 -34 -116 -34c-55 0 -108 28 -108 89c0 71 55 121 102 149c35 21 75 34 116 34z" fill="currentColor"/>
<rect transform="translate(22.9445, 4.9170)" x="-0.0650" y="-1.8139" width="0.1300" height="3.6239" ry="0.0400" fill="currentColor"/>
<rect transform="translate(25.4487, 4.9170)" x="-0.0650" y="-1.3139" width="0.1300" height="3.1239" ry="0.0400" fill="currentColor"/>
<path transform="translate(25.3837, 3.4170) scale(0.0040, -0.0040)" d="M218 136c55 0 108 -28 108 -89c0 -71 -55 -121 -102 -149c-35 -21 -75 -34 -116 -34c-55 0 -108 28 -108 89c0 71 55 121 102 149c35 21 75 34 116 34z" fill="currentColor"/>
</svg>
